<svg xmlns="http://www.w3.org/2000/svg" viewBox="0 0 625 126.49"><defs><style>.cls-1{fill:#151515;}</style></defs><g id="Layer_2" data-name="Layer 2"><g id="Layer_1-2" data-name="Layer 1"><g id="Logo"><path class="cls-1" d="M115,8h72.59V21.47H130.1V55h49.11V68.26H130.1v36.6H188V118.3H115Z"/><path class="cls-1" d="M211,8h15L279.74,92.2h.31V8h14.52V118.3H279.74L225.69,33.36h-.31V118.3H211Z"/><path class="cls-1" d="M319.32,82.93V45.71c0-24.4,18.54-39.53,42.48-39.53,21.62,0,40.3,11.43,40.3,33.2V44H387.74V41.08c0-14.67-11.89-21.47-26.1-21.47s-27.18,8.65-27.18,25.64V81.7c0,15.6,12.05,25,28,25,14.06,0,25.64-7.57,25.64-22.24V75.37H358.4V61.78h44v24.4c0,22.08-17.91,34.13-40,34.13C338.78,120.31,319.32,107.18,319.32,82.93Z"/><path class="cls-1" d="M426.08,81.7V8.19h15.13V79.38c0,17.61,10.19,27,26.56,27,16.84,0,26.57-9.42,26.26-26.72V8.19h15.13V80.62c.16,24.86-16.83,39.53-41.69,39.53C444.76,120.15,426.08,108.11,426.08,81.7Z"/><path class="cls-1" d="M49.73,8.19H43.55V21.47h5.09c16.07,0,26.88,9.73,26.88,24.24V80.46c0,15.6-11.74,24.4-26.41,24.4H43.55V118.3h6.33c21.62,0,40.77-14.21,40.77-38.76V46.18C90.65,22.39,72.89,8.19,49.73,8.19Z"/><polygon class="cls-1" points="30.27 13.28 30.27 0 0 0 0 126.49 30.27 126.49 30.27 113.2 15.13 113.2 15.13 13.28 30.27 13.28"/><polygon class="cls-1" points="594.73 113.2 594.73 126.49 625 126.49 625 0 594.73 0 594.73 13.28 609.87 13.28 609.87 113.2 594.73 113.2"/><polygon class="cls-1" points="596.18 83.73 547.84 8.03 532.86 8.03 532.86 118.3 547.23 118.3 547.23 33.36 547.53 33.36 591.01 101.68 596.18 101.68 596.18 83.73"/></g></g></g></svg>