<?xml version="1.0" encoding="UTF-8" ?>
<!DOCTYPE svg PUBLIC "-//W3C//DTD SVG 1.1//EN" "http://www.w3.org/Graphics/SVG/1.1/DTD/svg11.dtd">
<svg width="682pt" height="126pt" viewBox="0 0 682 126" version="1.1" xmlns="http://www.w3.org/2000/svg">
<g id="#ea4335ff">
<path fill="#ea4335" opacity="1.00" d=" M 52.06 33.20 C 57.08 30.50 63.49 33.92 65.06 39.13 C 66.59 43.40 64.03 48.11 60.25 50.25 C 54.04 53.89 47.75 57.40 41.56 61.08 C 36.30 58.23 31.38 54.71 25.90 52.28 C 23.27 50.95 20.28 51.67 17.72 52.76 L 16.98 53.05 C 28.79 46.65 40.21 39.52 52.06 33.20 Z" />
</g>
<g id="#0f9d58ff">
<path fill="#0f9d58" opacity="1.00" d=" M 85.30 33.21 C 88.29 31.54 91.96 32.31 94.77 33.97 C 105.23 39.90 115.61 45.96 126.06 51.91 C 128.80 53.39 131.14 55.82 131.91 58.90 C 133.18 63.32 130.42 68.19 126.37 70.03 C 123.79 70.40 120.98 70.84 118.60 69.47 C 113.85 67.14 109.46 64.16 104.79 61.69 C 98.97 58.39 93.24 54.94 87.40 51.69 C 84.74 50.14 81.79 48.45 80.60 45.43 C 78.33 40.92 80.92 35.29 85.30 33.21 Z" />
</g>
<g id="#00000099">
<path fill="#000000" opacity="0.60" d=" M 160.65 45.65 C 168.22 38.49 181.12 38.18 189.04 44.91 C 191.21 46.53 187.80 48.23 186.94 49.59 C 180.89 43.67 170.32 43.24 164.09 49.07 C 157.06 55.36 157.06 67.62 164.08 73.92 C 170.48 79.85 182.14 79.62 187.64 72.56 C 189.42 70.43 190.03 67.65 190.73 65.03 C 185.61 64.99 180.49 65.03 175.37 64.95 C 175.37 63.31 175.38 61.68 175.38 60.05 C 182.06 59.95 188.75 60.00 195.43 60.01 C 195.79 65.41 195.14 71.28 191.50 75.55 C 186.51 81.88 177.59 84.30 169.92 82.28 C 162.17 80.51 155.76 73.90 154.26 66.09 C 152.64 58.78 155.05 50.67 160.65 45.65 Z" />
<path fill="#000000" opacity="0.60" d=" M 202.25 40.04 C 210.62 40.24 219.98 38.58 227.29 43.70 C 235.34 49.13 237.29 60.34 234.30 69.10 C 232.16 75.29 226.60 80.09 220.18 81.34 C 214.27 82.51 208.22 81.87 202.25 81.95 C 202.31 67.98 202.29 54.01 202.25 40.04 M 207.22 45.03 C 207.23 55.67 207.24 66.32 207.21 76.97 C 212.34 76.82 217.83 77.83 222.62 75.49 C 233.65 70.11 233.31 51.01 221.92 46.21 C 217.27 44.28 212.11 45.16 207.22 45.03 Z" />
<path fill="#000000" opacity="0.60" d=" M 247.73 44.73 C 255.67 38.20 268.78 38.41 275.96 45.94 C 275.29 47.40 273.97 48.41 272.93 49.58 C 266.72 43.48 255.68 43.25 249.56 49.58 C 242.87 56.17 243.30 68.40 250.60 74.38 C 257.24 79.98 268.91 79.40 274.04 72.02 C 275.58 69.98 276.06 67.43 276.70 65.02 C 271.59 64.99 266.48 65.02 261.38 64.96 C 261.38 63.32 261.38 61.68 261.38 60.05 C 268.06 59.96 274.74 60.00 281.43 60.01 C 281.83 65.62 281.04 71.76 277.08 76.06 C 271.81 82.30 262.64 84.40 254.97 82.02 C 247.30 79.89 241.20 72.99 240.08 65.10 C 238.73 57.59 241.68 49.44 247.73 44.73 Z" />
<path fill="#000000" opacity="0.60" d=" M 302.34 48.43 C 307.59 41.27 317.53 38.31 325.92 41.01 C 329.28 41.89 332.03 44.12 334.70 46.23 C 333.51 47.38 332.32 48.53 331.17 49.71 C 325.19 43.56 314.42 43.24 308.18 49.15 C 300.76 56.06 301.60 70.14 310.42 75.55 C 317.26 80.07 326.94 78.35 332.27 72.26 C 333.48 73.42 334.69 74.57 335.91 75.73 C 330.58 81.21 322.59 84.25 315.01 82.49 C 307.07 81.04 300.26 74.51 298.66 66.58 C 297.60 60.38 298.24 53.47 302.34 48.43 Z" />
<path fill="#000000" opacity="0.60" d=" M 446.37 40.06 C 448.03 40.04 449.68 40.02 451.35 39.97 C 451.36 53.99 451.37 68.01 451.35 82.03 C 449.68 81.99 448.03 81.96 446.38 81.95 C 446.42 67.98 446.43 54.02 446.37 40.06 Z" />
<path fill="#000000" opacity="0.60" d=" M 504.26 40.03 C 509.54 40.09 514.84 39.76 520.13 40.15 C 526.04 40.49 531.49 45.91 530.74 52.03 C 531.12 55.81 528.11 58.43 525.30 60.33 C 528.15 61.74 530.97 63.83 531.80 67.07 C 533.92 73.60 528.74 80.85 522.11 81.73 C 516.18 82.35 510.21 81.86 504.26 81.97 C 504.29 67.99 504.30 54.01 504.26 40.03 M 509.21 45.03 C 509.23 49.34 509.23 53.65 509.21 57.96 C 513.39 57.88 517.64 58.42 521.77 57.63 C 527.16 55.75 527.14 47.16 521.73 45.32 C 517.60 44.61 513.38 45.12 509.21 45.03 M 509.21 63.03 C 509.23 67.68 509.23 72.32 509.22 76.97 C 513.16 76.95 517.12 77.18 521.06 76.92 C 523.89 76.89 526.13 74.50 526.97 71.96 C 528.32 68.10 525.21 63.35 521.13 63.09 C 517.16 62.81 513.18 63.05 509.21 63.03 Z" />
<path fill="#000000" opacity="0.60" d=" M 398.51 44.96 C 400.21 45.01 401.92 45.04 403.63 45.07 C 403.59 48.04 403.59 51.01 403.60 53.98 C 405.89 53.99 408.19 54.00 410.49 54.01 C 410.48 55.67 410.48 57.33 410.49 58.99 C 408.19 59.00 405.89 59.01 403.60 59.03 C 403.76 64.33 403.21 69.66 403.86 74.94 C 404.85 77.41 407.92 76.83 410.02 77.34 C 410.33 78.74 410.65 80.14 410.94 81.54 C 406.62 82.55 400.66 81.98 399.04 77.08 C 397.88 71.19 398.76 65.09 398.56 59.11 C 396.87 59.04 395.19 59.01 393.51 58.95 C 393.52 57.32 393.52 55.68 393.51 54.05 C 395.18 53.99 396.87 53.96 398.55 53.90 C 398.51 50.92 398.51 47.94 398.51 44.96 Z" />
<path fill="#000000" opacity="0.60" d=" M 340.05 57.98 C 341.33 55.09 344.93 53.97 347.83 53.30 C 354.08 51.91 362.21 54.98 363.23 61.99 C 363.86 68.64 363.32 75.34 363.48 82.01 C 361.86 81.99 360.26 81.99 358.65 82.00 C 358.65 80.67 358.65 79.35 358.66 78.03 C 357.15 79.41 355.74 80.98 353.90 81.93 C 348.67 84.55 341.42 82.06 339.17 76.59 C 337.59 72.75 339.26 67.93 342.94 65.97 C 347.84 63.06 353.81 63.93 358.97 65.60 C 358.96 61.75 356.08 58.13 352.10 58.00 C 349.01 57.46 346.22 58.96 343.80 60.68 C 342.51 59.83 341.10 59.12 340.05 57.98 M 346.22 70.14 C 343.98 71.15 342.59 74.42 344.82 76.20 C 349.66 80.56 358.10 76.95 359.16 70.70 C 355.20 68.79 350.25 68.08 346.22 70.14 Z" />
<path fill="#000000" opacity="0.60" d=" M 370.87 55.90 C 376.69 51.10 386.45 52.45 390.60 58.84 C 389.12 59.43 387.65 60.04 386.17 60.63 C 382.82 57.57 377.11 56.73 373.60 59.96 C 373.07 61.44 373.47 62.53 374.82 63.20 C 379.08 65.21 384.24 65.07 388.06 68.07 C 391.04 70.25 391.45 74.72 389.88 77.84 C 386.32 83.33 378.21 84.37 372.79 81.14 C 370.30 79.86 368.86 77.39 367.39 75.13 C 368.85 74.52 370.31 73.90 371.77 73.29 C 374.15 77.52 379.74 79.54 384.06 76.98 C 386.09 76.09 386.30 72.82 384.41 71.70 C 380.32 69.25 375.07 69.66 371.16 66.82 C 367.46 64.49 367.47 58.51 370.87 55.90 Z" />
<path fill="#000000" opacity="0.60" d=" M 420.35 55.35 C 425.99 51.46 434.75 52.51 438.83 58.18 C 441.11 61.27 441.53 65.20 441.78 68.92 C 434.17 69.13 426.57 68.85 418.96 69.10 C 419.56 71.77 420.37 74.66 422.81 76.24 C 427.16 79.51 433.46 78.18 436.98 74.30 C 438.40 74.91 439.84 75.51 441.27 76.11 C 436.87 83.10 426.42 85.26 419.83 80.14 C 412.01 74.37 412.28 60.78 420.35 55.35 M 419.30 63.90 C 425.11 64.05 430.92 64.07 436.72 63.88 C 435.46 60.22 432.05 57.48 428.05 57.95 C 424.00 57.51 420.87 60.47 419.30 63.90 Z" />
<path fill="#000000" opacity="0.60" d=" M 467.36 53.51 C 474.06 51.60 481.90 55.28 484.38 61.86 C 487.42 69.06 484.51 78.74 476.95 81.74 C 469.74 85.14 460.10 81.33 457.58 73.66 C 454.42 65.78 458.71 55.39 467.36 53.51 M 468.21 58.30 C 462.29 59.96 460.01 67.44 462.49 72.70 C 464.36 77.24 469.97 79.14 474.45 77.55 C 481.23 75.15 482.64 65.14 477.52 60.44 C 475.14 57.98 471.41 57.47 468.21 58.30 Z" />
<path fill="#000000" opacity="0.60" d=" M 542.23 58.44 C 544.96 54.38 549.85 51.93 554.71 53.51 C 554.18 54.97 553.67 56.43 553.16 57.90 C 548.82 57.32 543.87 59.02 542.73 63.68 C 541.88 69.74 542.59 75.92 542.35 82.03 C 540.68 81.99 539.03 81.97 537.38 81.95 C 537.42 72.65 537.43 63.35 537.38 54.05 C 538.98 54.04 540.59 54.02 542.21 53.97 C 542.22 55.46 542.22 56.95 542.23 58.44 Z" />
<path fill="#000000" opacity="0.60" d=" M 557.20 57.36 C 561.76 52.63 569.53 51.75 575.27 54.77 C 578.58 56.55 580.66 60.24 580.57 63.98 C 580.69 69.97 580.51 75.95 580.63 81.94 C 579.01 81.95 577.38 81.98 575.78 82.03 C 575.78 80.70 575.79 79.36 575.80 78.03 C 573.98 79.78 572.19 81.78 569.68 82.49 C 564.18 84.27 557.03 81.01 555.93 75.05 C 554.86 70.70 557.97 66.33 562.08 65.03 C 566.61 63.22 571.56 64.17 576.03 65.67 C 575.57 63.73 575.74 61.35 573.93 60.04 C 570.28 56.64 564.53 57.72 560.94 60.66 C 559.73 59.58 557.38 59.22 557.20 57.36 M 562.60 70.65 C 560.40 72.02 560.59 75.93 562.99 77.03 C 568.07 80.02 575.85 76.48 575.99 70.30 C 571.74 68.88 566.53 67.91 562.60 70.65 Z" />
<path fill="#000000" opacity="0.60" d=" M 591.60 57.88 C 594.67 55.00 598.63 52.21 603.10 53.18 C 607.24 53.61 610.93 56.82 611.44 61.04 C 612.08 67.99 611.54 74.99 611.74 81.97 C 610.04 81.97 608.33 81.99 606.65 82.02 C 606.48 75.48 606.94 68.93 606.45 62.41 C 605.52 58.12 600.09 57.03 596.52 58.55 C 593.40 60.06 591.81 63.58 591.77 66.93 C 591.56 71.94 591.79 76.95 591.74 81.97 C 590.08 81.97 588.42 81.98 586.78 82.02 C 586.76 72.67 586.77 63.32 586.78 53.98 C 588.38 54.02 590.00 54.04 591.62 54.05 C 591.61 55.01 591.60 56.92 591.60 57.88 Z" />
<path fill="#000000" opacity="0.60" d=" M 623.94 54.86 C 630.72 50.84 640.15 53.72 643.50 60.87 C 641.98 61.48 640.47 62.09 638.97 62.71 C 636.64 58.52 631.35 56.66 626.97 58.72 C 620.06 61.93 619.69 73.03 626.20 76.85 C 630.68 79.54 636.73 77.72 639.36 73.30 C 640.78 73.91 642.20 74.52 643.64 75.13 C 640.25 82.66 630.09 85.22 623.30 80.77 C 614.18 75.28 614.40 59.81 623.94 54.86 Z" />
<path fill="#000000" opacity="0.60" d=" M 657.34 53.44 C 664.01 51.70 671.82 55.45 674.11 62.08 C 677.34 69.70 673.55 79.95 665.25 82.25 C 656.57 85.50 646.22 78.35 646.38 69.06 C 645.55 62.07 650.36 54.86 657.34 53.44 M 657.32 58.48 C 650.06 61.12 649.12 72.35 655.41 76.54 C 660.45 80.09 668.60 77.34 669.83 71.10 C 672.60 63.74 664.87 55.30 657.32 58.48 Z" />
</g>
<g id="#4285f4ff">
<path fill="#4285f4" opacity="1.00" d=" M 17.72 52.76 C 20.28 51.67 23.27 50.95 25.90 52.28 C 31.38 54.71 36.30 58.23 41.56 61.08 C 47.94 64.82 54.36 68.50 60.73 72.25 C 62.65 73.28 64.23 74.94 64.81 77.08 C 67.13 82.46 62.91 89.36 57.09 89.82 C 53.57 90.28 50.38 88.29 47.47 86.58 C 38.03 81.01 28.53 75.55 19.07 70.02 C 16.17 68.34 13.39 65.64 13.13 62.12 C 12.56 58.42 14.70 54.78 17.72 52.76 Z" />
</g>
<g id="#fbbc04ff">
<path fill="#fbbc04" opacity="1.00" d=" M 84.39 72.35 C 90.25 68.72 96.33 65.48 102.17 61.84 C 102.83 61.80 104.13 61.73 104.79 61.69 C 109.46 64.16 113.85 67.14 118.60 69.47 C 120.98 70.84 123.79 70.40 126.37 70.03 C 115.87 75.82 105.62 82.05 95.22 88.02 C 91.81 90.11 87.08 90.79 83.79 88.12 C 78.28 84.69 78.59 75.29 84.39 72.35 Z" />
</g>
</svg>
