<?xml version="1.0" encoding="utf-8"?>
<!-- Generator: Adobe Illustrator 19.0.0, SVG Export Plug-In . SVG Version: 6.00 Build 0)  -->
<svg version="1.1" id="Camada_1" xmlns="http://www.w3.org/2000/svg" xmlns:xlink="http://www.w3.org/1999/xlink" x="0px" y="0px"
	 viewBox="-131 367 347.7 60" style="enable-background:new -131 367 347.7 60;" xml:space="preserve">
<style type="text/css">
	.st0{display:none;}
	.st1{display:inline;}
	.st2{fill:none;}
	.st3{display:inline;fill:url(#SVGID_1_);}
	.st4{display:inline;fill:none;}
	.st5{display:inline;opacity:9.000000e-002;fill:#010101;enable-background:new    ;}
	.st6{display:inline;fill:url(#SVGID_2_);}
	.st7{display:inline;fill:#4E4E4E;}
	.st8{fill:#EA4335;}
	.st9{fill:#4285F4;}
	.st10{fill:#FBBC04;}
	.st11{fill:#0F9D58;}
	.st12{fill:#676C72;}
	.st13{font-family:'GoogleSans-Regular';}
	.st14{font-size:37.8898px;}
</style>
<g transform="translate(-985.904 -3367.887)" class="st0">
	<g class="st1">
		<path class="st2" d="M856.4,5003.3l-12.1,19.8c-0.7,1.1-0.2,2,1.1,2h14.2c1.3,0,2.9-0.9,3.6-2l6.4-10.4L856.4,5003.3z M874,4984.5
			l-10.8-17.4c-0.7-1.1-2.3-2-3.6-2h-14.2c-1.3,0-1.8,0.9-1.1,2l13.8,22.5l7.8-10.9L874,4984.5L874,4984.5z"/>
	</g>
	
		<linearGradient id="SVGID_1_" gradientUnits="userSpaceOnUse" x1="6362.4814" y1="-397.165" x2="6377.959" y2="-406.8373" gradientTransform="matrix(1 0 0 -1 -5511.501 4611.0488)">
		<stop  offset="0.54" style="stop-color:#0A985C"/>
		<stop  offset="0.54" style="stop-color:#F6C25B"/>
	</linearGradient>
	<path class="st3" d="M868.9,5008.4c-1.2-2-4-7.1-6.2-10.9l-2.4-4.2c0.6,1.1,0.5,2.8-0.1,3.8l-15.9,26c-0.7,1.1-0.2,2,1.1,2h14.2
		c1.3,0,2.9-0.9,3.6-2l6.4-10.4C869.6,5012.9,870.4,5010.9,868.9,5008.4z"/>
	<path class="st4" d="M856.4,5003.3l-12.1,19.8c-0.7,1.1-0.2,2,1.1,2h14.2c1.3,0,2.9-0.9,3.6-2l6.4-10.4L856.4,5003.3L856.4,5003.3z
		 M874,4984.5l-10.8-17.4c-0.7-1.1-2.3-2-3.6-2h-14.2c-1.3,0-1.8,0.9-1.1,2l13.8,22.5l7.8-10.9L874,4984.5z"/>
	<path class="st5" d="M879.3,4997.1c0.7-1.1,0.7-2.9,0-4l-5.3-8.6l-8.2-5.8l-7.8,10.9l2.1,3.4c0.7,1.1,0.7,2.9,0,4l-3.8,6.2
		l13.3,9.4L879.3,4997.1z"/>
	
		<linearGradient id="SVGID_2_" gradientUnits="userSpaceOnUse" x1="6367.0044" y1="-378.9684" x2="6382.8887" y2="-369.0416" gradientTransform="matrix(1 0 0 -1 -5511.501 4611.0488)">
		<stop  offset="0.57" style="stop-color:#5586C5"/>
		<stop  offset="0.57" style="stop-color:#D9423E"/>
	</linearGradient>
	<path class="st6" d="M879.3,4993.1l-16.1-26c-0.7-1.1-2.3-2-3.6-2h-14.2c-1.3,0-1.8,0.9-1.1,2l15.9,26l2.5,4.5
		c2.1,3.8,5,8.9,6.2,10.9c1.8,3,0.2,5.1,0.9,4l9.5-15.3C880,4996,880,4994.2,879.3,4993.1L879.3,4993.1z M860.2,4993.1L860.2,4993.1
		l0.1,0.1L860.2,4993.1z M861.4,4995.1l0.2,0.3L861.4,4995.1z M861.4,4995l0.3,0.5L861.4,4995z"/>
	<path class="st7" d="M913.2,4991.1h14.1v17.6c-3.8,1.3-8,2-12.6,2c-5,0-8.9-1.5-11.6-4.4s-4.1-7.1-4.1-12.5c0-5.3,1.5-9.4,4.5-12.3
		s7.2-4.4,12.6-4.4c2.1,0,4,0.2,5.8,0.6s3.4,0.9,4.8,1.5l-2.8,6.9c-2.3-1.2-4.9-1.7-7.7-1.7c-2.6,0-4.6,0.8-6,2.5s-2.1,4.1-2.1,7.2
		c0,3,0.6,5.4,1.9,7s3.1,2.4,5.5,2.4c1.3,0,2.5-0.1,3.6-0.4v-5.1h-5.8L913.2,4991.1L913.2,4991.1L913.2,4991.1z M958.8,4993.2
		c0,5.4-1.5,9.6-4.5,12.6c-3,2.9-7.2,4.4-12.6,4.4h-10.5v-32.6h11.3c5.2,0,9.3,1.3,12.1,4C957.4,4984.3,958.8,4988.2,958.8,4993.2
		L958.8,4993.2z M949.7,4993.5c0-3-0.6-5.2-1.8-6.6c-1.2-1.4-3-2.2-5.4-2.2h-2.6v18.3h2c2.7,0,4.6-0.8,5.9-2.3
		S949.7,4996.7,949.7,4993.5L949.7,4993.5z M975.1,4991.1h14.1v17.6c-3.8,1.3-8,2-12.6,2c-5,0-8.9-1.5-11.6-4.4s-4.1-7.1-4.1-12.5
		c0-5.3,1.5-9.4,4.5-12.3s7.2-4.4,12.6-4.4c2.1,0,4,0.2,5.8,0.6s3.4,0.9,4.8,1.5l-2.8,6.9c-2.3-1.2-4.9-1.7-7.7-1.7
		c-2.6,0-4.6,0.8-6,2.5s-2.1,4.1-2.1,7.2c0,3,0.6,5.4,1.9,7s3.1,2.4,5.5,2.4c1.3,0,2.5-0.1,3.6-0.4v-5.1h-5.8L975.1,4991.1z"/>
</g>
<g class="st0">
	<path class="st7" d="M39.9,1613.8c-3.1,0-5.5,1.1-7.2,3.3c-1.8,2.2-2.6,5.2-2.6,9c0,4,0.8,7,2.5,9.1s4.1,3.1,7.3,3.1
		c1.4,0,2.7-0.1,4-0.4s2.6-0.6,4-1.1v4.6c-2.6,1-5.5,1.4-8.7,1.4c-4.8,0-8.4-1.4-11-4.3s-3.8-7-3.8-12.4c0-3.4,0.6-6.4,1.9-8.9
		c1.2-2.5,3-4.5,5.4-5.8c2.3-1.4,5.1-2,8.3-2c3.3,0,6.4,0.7,9.2,2.1l-1.9,4.4c-1.1-0.5-2.3-1-3.5-1.4
		C42.6,1614,41.3,1613.8,39.9,1613.8L39.9,1613.8z M73.4,1642.3h-5.3v-15.2c0-1.9-0.4-3.3-1.1-4.3s-2-1.4-3.6-1.4
		c-2.2,0-3.8,0.7-4.8,2s-1.5,3.5-1.5,6.6v12.2h-5.2v-34.7h5.2v8.8c0,1.4-0.1,2.9-0.3,4.5h0.3c0.7-1.2,1.7-2.1,3-2.8
		c1.3-0.7,2.8-1,4.4-1c6,0,9,3,9,9L73.4,1642.3L73.4,1642.3z M88.7,1642.8c-3.8,0-6.8-1.1-9-3.4c-2.2-2.2-3.2-5.3-3.2-9.2
		c0-4,1-7.2,3-9.5s4.8-3.5,8.3-3.5c3.3,0,5.8,1,7.7,3s2.8,4.7,2.8,8.2v2.8H81.9c0.1,2.4,0.7,4.2,1.9,5.5s2.9,1.9,5.1,1.9
		c1.5,0,2.8-0.1,4.1-0.4s2.6-0.7,4-1.4v4.3c-1.3,0.6-2.6,1-3.9,1.3S90.4,1642.8,88.7,1642.8L88.7,1642.8z M87.7,1621.2
		c-1.7,0-3,0.5-4,1.6s-1.6,2.6-1.8,4.6h11.2c0-2-0.5-3.6-1.5-4.6C90.7,1621.7,89.4,1621.2,87.7,1621.2L87.7,1621.2z M114,1617.2
		c1.1,0,1.9,0.1,2.6,0.2l-0.5,4.9c-0.7-0.2-1.5-0.3-2.3-0.3c-2.1,0-3.8,0.7-5.1,2.1s-2,3.1-2,5.3v12.9h-5.2v-24.7h4.1l0.7,4.3h0.3
		c0.8-1.5,1.9-2.6,3.2-3.5C111.1,1617.6,112.5,1617.2,114,1617.2z M123.5,1629.3l3-3.7l7.4-7.9h6l-9.9,10.6l10.5,14.1h-6.2
		l-7.9-10.8l-2.9,2.4v8.4h-5.2v-34.7h5.2v16.9l-0.3,4.7H123.5L123.5,1629.3z M157.2,1642.3l-1-3.4H156c-1.2,1.5-2.4,2.5-3.6,3.1
		c-1.2,0.5-2.8,0.8-4.6,0.8c-2.4,0-4.3-0.7-5.7-2c-1.4-1.3-2-3.2-2-5.6c0-2.5,0.9-4.5,2.8-5.8s4.8-2,8.6-2.1l4.3-0.1v-1.3
		c0-1.6-0.4-2.8-1.1-3.5c-0.7-0.8-1.9-1.2-3.4-1.2c-1.3,0-2.5,0.2-3.6,0.6c-1.2,0.4-2.3,0.8-3.3,1.3l-1.7-3.7
		c1.3-0.7,2.8-1.2,4.4-1.6s3.1-0.5,4.5-0.5c3.1,0,5.5,0.7,7.1,2.1s2.4,3.5,2.4,6.4v16.6L157.2,1642.3L157.2,1642.3z M149.4,1638.7
		c1.9,0,3.4-0.5,4.6-1.6s1.7-2.6,1.7-4.5v-2.1l-3.2,0.1c-2.5,0.1-4.3,0.5-5.4,1.2s-1.7,1.9-1.7,3.4c0,1.1,0.3,2,1,2.6
		S148.1,1638.7,149.4,1638.7L149.4,1638.7z M182.1,1635.3c0,2.4-0.9,4.3-2.6,5.5c-1.8,1.3-4.3,1.9-7.5,1.9c-3.3,0-5.9-0.5-7.9-1.5
		v-4.5c2.9,1.3,5.6,2,8.1,2c3.2,0,4.8-1,4.8-2.9c0-0.6-0.2-1.1-0.5-1.6c-0.4-0.4-0.9-0.8-1.8-1.3s-2-1-3.4-1.5
		c-2.8-1.1-4.8-2.2-5.8-3.3c-1-1.1-1.5-2.5-1.5-4.3c0-2.1,0.9-3.7,2.6-4.9s4-1.8,6.9-1.8s5.6,0.6,8.2,1.8l-1.7,3.9
		c-2.7-1.1-4.9-1.6-6.7-1.6c-2.8,0-4.1,0.8-4.1,2.4c0,0.8,0.4,1.4,1.1,2s2.3,1.3,4.7,2.2c2,0.8,3.5,1.5,4.4,2.2s1.6,1.4,2.1,2.3
		C181.9,1633.1,182.1,1634.1,182.1,1635.3L182.1,1635.3z M181.3,1617.7h5.7l5,14c0.8,2,1.3,3.9,1.5,5.6h0.2c0.1-0.8,0.4-1.8,0.7-3
		c0.3-1.2,2.2-6.7,5.7-16.6h5.7l-10.5,27.9c-1.9,5.1-5.1,7.7-9.6,7.7c-1.2,0-2.3-0.1-3.4-0.4v-4.1c0.8,0.2,1.7,0.3,2.7,0.3
		c2.5,0,4.3-1.5,5.3-4.4l0.9-2.3L181.3,1617.7L181.3,1617.7z"/>
</g>
<g>
	<g>
		<g>
			<path class="st8" d="M-101.8,397.3l12.5-7.2c2.9-1.7,3.9-5.5,2.2-8.4c-1.7-2.9-5.5-3.9-8.4-2.2l-21.6,12.5L-101.8,397.3z"/>
		</g>
		<g>
			<path class="st9" d="M-92.4,415.8c2.1,0,4.2-1.1,5.3-3.1c1.7-2.9,0.7-6.7-2.2-8.4l-21.6-12.5c-2.9-1.7-6.7-0.7-8.4,2.2
				c-1.7,2.9-0.7,6.7,2.2,8.4l21.6,12.5C-94.5,415.5-93.5,415.8-92.4,415.8z"/>
		</g>
		<g>
			<path class="st10" d="M-71,415.8c1,0,2.1-0.3,3.1-0.8l21.6-12.5l-15-5.5l-12.7,7.3c-2.9,1.7-3.9,5.5-2.2,8.4
				C-75.2,414.7-73.1,415.8-71,415.8z"/>
		</g>
		<g>
			<path class="st11" d="M-49.4,403.3c2.1,0,4.2-1.1,5.3-3.1c1.7-2.9,0.7-6.7-2.2-8.4l-21.6-12.5c-2.9-1.7-6.7-0.7-8.4,2.2
				c-1.7,2.9-0.7,6.7,2.2,8.4l21.6,12.5C-51.5,403.1-50.4,403.3-49.4,403.3z"/>
		</g>
	</g>
	<text transform="matrix(1 0 0 1 -27.5527 410.8199)" class="st12 st13 st14">GDG Madeira</text>
</g>
</svg>
