<?xml version="1.0" encoding="utf-8"?>
<!-- Generator: Adobe Illustrator 19.0.0, SVG Export Plug-In . SVG Version: 6.00 Build 0)  -->
<svg version="1.1" id="Camada_1" xmlns="http://www.w3.org/2000/svg" xmlns:xlink="http://www.w3.org/1999/xlink" x="0px" y="0px"
	 viewBox="-131 367 347.7 60" style="enable-background:new -131 367 347.7 60;" xml:space="preserve">
<style type="text/css">
	.st0{display:none;}
	.st1{display:inline;}
	.st2{fill:none;}
	.st3{display:inline;fill:url(#SVGID_1_);}
	.st4{display:inline;fill:none;}
	.st5{display:inline;opacity:9.000000e-002;fill:#010101;enable-background:new    ;}
	.st6{display:inline;fill:url(#SVGID_2_);}
	.st7{display:inline;fill:#4E4E4E;}
	.st8{fill:#EA4335;}
	.st9{fill:#4285F4;}
	.st10{fill:#FBBC04;}
	.st11{fill:#0F9D58;}
	.st12{fill:#676C72;}
	.st13{font-family:'GoogleSans-Regular';}
	.st14{font-size:38.0698px;}
</style>
<g transform="translate(-985.904 -3367.887)" class="st0">
	<g class="st1">
		<path class="st2" d="M987.4,4636.3l-12.1,19.8c-0.7,1.1-0.2,2,1.1,2h14.2c1.3,0,2.9-0.9,3.6-2l6.4-10.4L987.4,4636.3z
			 M1005,4617.5l-10.8-17.4c-0.7-1.1-2.3-2-3.6-2h-14.2c-1.3,0-1.8,0.9-1.1,2l13.8,22.5l7.8-10.9L1005,4617.5L1005,4617.5z"/>
	</g>
	
		<linearGradient id="SVGID_1_" gradientUnits="userSpaceOnUse" x1="5507.5771" y1="4194.0518" x2="5523.0552" y2="4203.7241" gradientTransform="matrix(1 0 0 1 -4525.5972 447.1619)">
		<stop  offset="0.54" style="stop-color:#0A985C"/>
		<stop  offset="0.54" style="stop-color:#F6C25B"/>
	</linearGradient>
	<path class="st3" d="M999.9,4641.4c-1.2-2-4-7.1-6.2-10.9l-2.4-4.2c0.6,1.1,0.5,2.8-0.1,3.8l-15.9,26c-0.7,1.1-0.2,2,1.1,2h14.2
		c1.3,0,2.9-0.9,3.6-2l6.4-10.4C1000.6,4645.9,1001.4,4643.9,999.9,4641.4z"/>
	<path class="st4" d="M987.4,4636.3l-12.1,19.8c-0.7,1.1-0.2,2,1.1,2h14.2c1.3,0,2.9-0.9,3.6-2l6.4-10.4L987.4,4636.3L987.4,4636.3z
		 M1005,4617.5l-10.8-17.4c-0.7-1.1-2.3-2-3.6-2h-14.2c-1.3,0-1.8,0.9-1.1,2l13.8,22.5l7.8-10.9L1005,4617.5z"/>
	<path class="st5" d="M1010.3,4630.1c0.7-1.1,0.7-2.9,0-4l-5.3-8.6l-8.2-5.8l-7.8,10.9l2.1,3.4c0.7,1.1,0.7,2.9,0,4l-3.8,6.2
		l13.3,9.4L1010.3,4630.1z"/>
	
		<linearGradient id="SVGID_2_" gradientUnits="userSpaceOnUse" x1="5512.1006" y1="4175.8555" x2="5527.9849" y2="4165.9287" gradientTransform="matrix(1 0 0 1 -4525.5972 447.1619)">
		<stop  offset="0.57" style="stop-color:#5586C5"/>
		<stop  offset="0.57" style="stop-color:#D9423E"/>
	</linearGradient>
	<path class="st6" d="M1010.3,4626.1l-16.1-26c-0.7-1.1-2.3-2-3.6-2h-14.2c-1.3,0-1.8,0.9-1.1,2l15.9,26l2.5,4.5
		c2.1,3.8,5,8.9,6.2,10.9c1.8,3,0.2,5.1,0.9,4l9.5-15.3C1011,4629,1011,4627.2,1010.3,4626.1L1010.3,4626.1z M991.2,4626.1
		L991.2,4626.1l0.1,0.1L991.2,4626.1z M992.4,4628.1l0.2,0.3L992.4,4628.1z M992.4,4628l0.3,0.5L992.4,4628z"/>
	<path class="st7" d="M1044.2,4624.1h14.1v17.6c-3.8,1.3-8,2-12.6,2c-5,0-8.9-1.5-11.6-4.4s-4.1-7.1-4.1-12.5
		c0-5.3,1.5-9.4,4.5-12.3s7.2-4.4,12.6-4.4c2.1,0,4,0.2,5.8,0.6s3.4,0.9,4.8,1.5l-2.8,6.9c-2.3-1.2-4.9-1.7-7.7-1.7
		c-2.6,0-4.6,0.8-6,2.5s-2.1,4.1-2.1,7.2c0,3,0.6,5.4,1.9,7s3.1,2.4,5.5,2.4c1.3,0,2.5-0.1,3.6-0.4v-5.1h-5.8L1044.2,4624.1
		L1044.2,4624.1L1044.2,4624.1z M1089.8,4626.2c0,5.4-1.5,9.6-4.5,12.6c-3,2.9-7.2,4.4-12.6,4.4h-10.5v-32.6h11.3
		c5.2,0,9.3,1.3,12.1,4C1088.4,4617.3,1089.8,4621.2,1089.8,4626.2L1089.8,4626.2z M1080.7,4626.5c0-3-0.6-5.2-1.8-6.6
		c-1.2-1.4-3-2.2-5.4-2.2h-2.6v18.3h2c2.7,0,4.6-0.8,5.9-2.3S1080.7,4629.7,1080.7,4626.5L1080.7,4626.5z M1106.1,4624.1h14.1v17.6
		c-3.8,1.3-8,2-12.6,2c-5,0-8.9-1.5-11.6-4.4s-4.1-7.1-4.1-12.5c0-5.3,1.5-9.4,4.5-12.3s7.2-4.4,12.6-4.4c2.1,0,4,0.2,5.8,0.6
		s3.4,0.9,4.8,1.5l-2.8,6.9c-2.3-1.2-4.9-1.7-7.7-1.7c-2.6,0-4.6,0.8-6,2.5s-2.1,4.1-2.1,7.2c0,3,0.6,5.4,1.9,7s3.1,2.4,5.5,2.4
		c1.3,0,2.5-0.1,3.6-0.4v-5.1h-5.8L1106.1,4624.1z"/>
</g>
<g class="st0">
	<path class="st7" d="M170.9,1246.8c-3.1,0-5.5,1.1-7.2,3.3c-1.8,2.2-2.6,5.2-2.6,9c0,4,0.8,7,2.5,9.1s4.1,3.1,7.3,3.1
		c1.4,0,2.7-0.1,4-0.4s2.6-0.6,4-1.1v4.6c-2.6,1-5.5,1.4-8.7,1.4c-4.8,0-8.4-1.4-11-4.3c-2.6-2.9-3.8-7-3.8-12.4
		c0-3.4,0.6-6.4,1.9-8.9c1.2-2.5,3-4.5,5.4-5.8c2.3-1.4,5.1-2,8.3-2c3.3,0,6.4,0.7,9.2,2.1l-1.9,4.4c-1.1-0.5-2.3-1-3.5-1.4
		C173.6,1247,172.3,1246.8,170.9,1246.8L170.9,1246.8z M204.4,1275.3h-5.3v-15.2c0-1.9-0.4-3.3-1.1-4.3s-2-1.4-3.6-1.4
		c-2.2,0-3.8,0.7-4.8,2c-1,1.3-1.5,3.5-1.5,6.6v12.2h-5.2v-34.7h5.2v8.8c0,1.4-0.1,2.9-0.3,4.5h0.3c0.7-1.2,1.7-2.1,3-2.8
		c1.3-0.7,2.8-1,4.4-1c6,0,9,3,9,9L204.4,1275.3L204.4,1275.3z M219.7,1275.8c-3.8,0-6.8-1.1-9-3.4c-2.2-2.2-3.2-5.3-3.2-9.2
		c0-4,1-7.2,3-9.5s4.8-3.5,8.3-3.5c3.3,0,5.8,1,7.7,3c1.9,2,2.8,4.7,2.8,8.2v2.8h-16.4c0.1,2.4,0.7,4.2,1.9,5.5s2.9,1.9,5.1,1.9
		c1.5,0,2.8-0.1,4.1-0.4c1.3-0.3,2.6-0.7,4-1.4v4.3c-1.3,0.6-2.6,1-3.9,1.3S221.4,1275.8,219.7,1275.8L219.7,1275.8z M218.7,1254.2
		c-1.7,0-3,0.5-4,1.6c-1,1.1-1.6,2.6-1.8,4.6h11.2c0-2-0.5-3.6-1.5-4.6C221.7,1254.7,220.4,1254.2,218.7,1254.2L218.7,1254.2z
		 M245,1250.2c1.1,0,1.9,0.1,2.6,0.2l-0.5,4.9c-0.7-0.2-1.5-0.3-2.3-0.3c-2.1,0-3.8,0.7-5.1,2.1c-1.3,1.4-2,3.1-2,5.3v12.9h-5.2
		v-24.7h4.1l0.7,4.3h0.3c0.8-1.5,1.9-2.6,3.2-3.5C242.1,1250.6,243.5,1250.2,245,1250.2z M254.5,1262.3l3-3.7l7.4-7.9h6l-9.9,10.6
		l10.5,14.1h-6.2l-7.9-10.8l-2.9,2.4v8.4h-5.2v-34.7h5.2v16.9l-0.3,4.7H254.5L254.5,1262.3z M288.2,1275.3l-1-3.4H287
		c-1.2,1.5-2.4,2.5-3.6,3.1c-1.2,0.5-2.8,0.8-4.6,0.8c-2.4,0-4.3-0.7-5.7-2c-1.4-1.3-2-3.2-2-5.6c0-2.5,0.9-4.5,2.8-5.8
		c1.9-1.3,4.8-2,8.6-2.1l4.3-0.1v-1.3c0-1.6-0.4-2.8-1.1-3.5c-0.7-0.8-1.9-1.2-3.4-1.2c-1.3,0-2.5,0.2-3.6,0.6
		c-1.2,0.4-2.3,0.8-3.3,1.3l-1.7-3.7c1.3-0.7,2.8-1.2,4.4-1.6c1.6-0.4,3.1-0.5,4.5-0.5c3.1,0,5.5,0.7,7.1,2.1
		c1.6,1.4,2.4,3.5,2.4,6.4v16.6L288.2,1275.3L288.2,1275.3z M280.4,1271.7c1.9,0,3.4-0.5,4.6-1.6c1.2-1.1,1.7-2.6,1.7-4.5v-2.1
		l-3.2,0.1c-2.5,0.1-4.3,0.5-5.4,1.2s-1.7,1.9-1.7,3.4c0,1.1,0.3,2,1,2.6S279.1,1271.7,280.4,1271.7L280.4,1271.7z M313.1,1268.3
		c0,2.4-0.9,4.3-2.6,5.5c-1.8,1.3-4.3,1.9-7.5,1.9c-3.3,0-5.9-0.5-7.9-1.5v-4.5c2.9,1.3,5.6,2,8.1,2c3.2,0,4.8-1,4.8-2.9
		c0-0.6-0.2-1.1-0.5-1.6c-0.4-0.4-0.9-0.8-1.8-1.3s-2-1-3.4-1.5c-2.8-1.1-4.8-2.2-5.8-3.3c-1-1.1-1.5-2.5-1.5-4.3
		c0-2.1,0.9-3.7,2.6-4.9s4-1.8,6.9-1.8s5.6,0.6,8.2,1.8l-1.7,3.9c-2.7-1.1-4.9-1.6-6.7-1.6c-2.8,0-4.1,0.8-4.1,2.4
		c0,0.8,0.4,1.4,1.1,2s2.3,1.3,4.7,2.2c2,0.8,3.5,1.5,4.4,2.2s1.6,1.4,2.1,2.3C312.9,1266.1,313.1,1267.1,313.1,1268.3L313.1,1268.3
		z M312.3,1250.7h5.7l5,14c0.8,2,1.3,3.9,1.5,5.6h0.2c0.1-0.8,0.4-1.8,0.7-3c0.3-1.2,2.2-6.7,5.7-16.6h5.7l-10.5,27.9
		c-1.9,5.1-5.1,7.7-9.6,7.7c-1.2,0-2.3-0.1-3.4-0.4v-4.1c0.8,0.2,1.7,0.3,2.7,0.3c2.5,0,4.3-1.5,5.3-4.4l0.9-2.3L312.3,1250.7
		L312.3,1250.7z"/>
</g>
<g>
	<g>
		<g>
			<path class="st8" d="M-72.9,397.4l12.6-7.2c2.9-1.7,3.9-5.5,2.2-8.4c-1.7-2.9-5.5-3.9-8.4-2.2l-21.7,12.6L-72.9,397.4z"/>
		</g>
		<g>
			<path class="st9" d="M-63.4,416c2.1,0,4.2-1.1,5.3-3.1c1.7-2.9,0.7-6.7-2.2-8.4L-82,391.9c-2.9-1.7-6.7-0.7-8.4,2.2
				c-1.7,2.9-0.7,6.7,2.2,8.4l21.7,12.6C-65.5,415.7-64.5,416-63.4,416z"/>
		</g>
		<g>
			<path class="st10" d="M-41.9,416c1,0,2.1-0.3,3.1-0.8l21.7-12.6l-15.1-5.5l-12.8,7.3c-2.9,1.7-3.9,5.5-2.2,8.4
				C-46.2,414.9-44,416-41.9,416z"/>
		</g>
		<g>
			<path class="st11" d="M-20.2,403.4c2.1,0,4.2-1.1,5.3-3.1c1.7-2.9,0.7-6.7-2.2-8.4l-21.7-12.6c-2.9-1.7-6.7-0.7-8.4,2.2
				c-1.7,2.9-0.7,6.7,2.2,8.4l21.7,12.6C-22.3,403.2-21.2,403.4-20.2,403.4z"/>
		</g>
	</g>
	<text transform="matrix(1 0 0 1 1.7084 410.9465)" class="st12 st13 st14">GDG Faro</text>
</g>
</svg>
