<?xml version="1.0" encoding="UTF-8" standalone="no"?>
<svg
   xmlns:dc="http://purl.org/dc/elements/1.1/"
   xmlns:cc="http://creativecommons.org/ns#"
   xmlns:rdf="http://www.w3.org/1999/02/22-rdf-syntax-ns#"
   xmlns:svg="http://www.w3.org/2000/svg"
   xmlns="http://www.w3.org/2000/svg"
   xmlns:sodipodi="http://sodipodi.sourceforge.net/DTD/sodipodi-0.dtd"
   xmlns:inkscape="http://www.inkscape.org/namespaces/inkscape"
   version="1.1"
   id="Layer_1"
   x="0px"
   y="0px"
   width="185px"
   height="188px"
   viewBox="0 0 185 188"
   enable-background="new 0 0 185 188"
   xml:space="preserve"
   sodipodi:docname="logos.svg"
   inkscape:version="1.0 (4035a4fb49, 2020-05-01)"><metadata
   id="metadata517"><rdf:RDF><cc:Work
       rdf:about=""><dc:format>image/svg+xml</dc:format><dc:type
         rdf:resource="http://purl.org/dc/dcmitype/StillImage" /></cc:Work></rdf:RDF></metadata><defs
   id="defs515"><rect
     id="rect395"
     height="857.67229"
     width="2283.9982"
     y="580.29221"
     x="-454.40794" /><clipPath
     clipPathUnits="userSpaceOnUse"
     id="clipPath226"><path
       d="M 0,436.161 H 2876.8 V 0 H 0 Z"
       id="path224" /></clipPath><clipPath
     clipPathUnits="userSpaceOnUse"
     id="clipPath323"><path
       d="M 0,436.161 H 2876.8 V 0 H 0 Z"
       id="path321" /></clipPath><clipPath
     clipPathUnits="userSpaceOnUse"
     id="clipPath577"><path
       d="M 0,304.833 H 611.827 V 0 H 0 Z"
       id="path575" /></clipPath><clipPath
     clipPathUnits="userSpaceOnUse"
     id="clipPath897"><path
       d="M 0,304.833 H 611.827 V 0 H 0 Z"
       id="path895" /></clipPath><clipPath
     clipPathUnits="userSpaceOnUse"
     id="clipPath937"><path
       d="M 0,304.833 H 611.827 V 0 H 0 Z"
       id="path935" /></clipPath></defs><sodipodi:namedview
   inkscape:document-rotation="0"
   pagecolor="#ffffff"
   bordercolor="#666666"
   borderopacity="1"
   objecttolerance="10"
   gridtolerance="10"
   guidetolerance="10"
   inkscape:pageopacity="0"
   inkscape:pageshadow="2"
   inkscape:window-width="1920"
   inkscape:window-height="1017"
   id="namedview513"
   showgrid="false"
   inkscape:zoom="1.5985127"
   inkscape:cx="9.8418514"
   inkscape:cy="69.808596"
   inkscape:window-x="-8"
   inkscape:window-y="-8"
   inkscape:window-maximized="1"
   inkscape:current-layer="a542" />



<g
   id="g319"
   clip-path="url(#clipPath323)"
   transform="matrix(1.3333333,0,0,-1.3333333,-2752.2444,463.43449)"><g
     transform="translate(-0.23459308,-95.010197)"
     id="g559"><g
       transform="matrix(0.06925239,0,0,0.06925239,2081.1943,325.12522)"
       id="g325"
       style="stroke-width:14.44"><path
         id="path327"
         style="fill:#ea4335;fill-opacity:1;fill-rule:nonzero;stroke:none;stroke-width:14.44"
         d="m 0,0 146.386,84.517 c 34.451,19.889 46.255,63.943 26.364,98.392 -19.89,34.449 -63.938,46.257 -98.391,26.364 L -178.59,63.231 Z" /></g><g
       transform="matrix(0.06925239,0,0,0.06925239,2088.8331,310.08185)"
       id="g329"
       style="stroke-width:14.44"><path
         id="path331"
         style="fill:#4285f4;fill-opacity:1;fill-rule:nonzero;stroke:none;stroke-width:14.44"
         d="m 0,0 c 24.896,0 49.103,12.92 62.446,36.027 19.891,34.449 8.087,78.503 -26.364,98.391 l -252.949,146.038 c -34.453,19.902 -78.501,8.085 -98.392,-26.364 -19.89,-34.453 -8.087,-78.503 26.364,-98.391 L -35.946,9.663 C -24.603,3.113 -12.217,0 0,0" /></g><g
       transform="matrix(0.28572785,0,0,0.28572785,2052.4662,240.0846)"
       id="g333"
       style="stroke-width:3.49984"><path
         id="path335"
         style="fill:#fbbc04;fill-opacity:1;fill-rule:nonzero;stroke:none;stroke-width:3.49985"
         d="m 188.26377,244.97874 c 2.96154,0 5.96259,0.7545 8.7123,2.34204 l 61.30699,35.3955 -42.73476,15.64316 -36.02979,-20.80157 c -8.34995,-4.82028 -11.21091,-15.49773 -6.38989,-23.8472 3.23325,-5.60048 9.10179,-8.73193 15.13515,-8.73193" /></g><g
       transform="matrix(0.06925239,0,0,0.06925239,2123.7661,320.1953)"
       id="g337"
       style="stroke-width:14.44"><path
         id="path339"
         style="fill:#0f9d58;fill-opacity:1;fill-rule:nonzero;stroke:none;stroke-width:14.44"
         d="m 0,0 c 24.896,0 49.103,12.916 62.446,36.027 19.891,34.449 8.087,78.499 -26.364,98.391 l -252.947,146.043 c -34.451,19.888 -78.499,8.089 -98.392,-26.365 -19.89,-34.448 -8.086,-78.498 26.365,-98.391 L -35.946,9.663 C -24.603,3.117 -12.217,0 0,0" /></g><a
       style="stroke-width:1.12042"
       transform="matrix(0.89252467,0,0,0.89252467,236.24503,36.049109)"
       id="a542"><text
         y="-330.97455"
         x="2130.467"
         transform="scale(1,-1)"
         style="font-variant:normal;font-weight:normal;font-stretch:normal;font-size:17.9973px;font-family:'Google Sans';-inkscape-font-specification:GoogleSans-Regular;writing-mode:lr-tb;fill:#ffffff;fill-opacity:1;fill-rule:nonzero;stroke:none;stroke-width:1.12042"
         id="text343"><tspan
           id="tspan868"
           style="font-style:normal;font-variant:normal;font-weight:bold;font-stretch:normal;font-family:'Google Sans';-inkscape-font-specification:'Google Sans Bold';fill:#000000;stroke-width:1.12042"
           y="-330.97455"
           x="2130.467"
           sodipodi:role="line">   <tspan
   id="tspan878"
   style="fill:#ffffff">GDG</tspan></tspan><tspan
           id="tspan874"
           style="fill:#ffffff;stroke-width:1.12042"
           y="-308.18762"
           x="2130.467"
           sodipodi:role="line">Portugal </tspan></text><g
         style="stroke-width:4.40517"
         id="g889"
         inkscape:label="Copy of GDG_DevFest_Logo (1)"
         transform="matrix(0.28496936,0,0,0.28496936,2169.9274,235.2386)"><g
           style="stroke-width:4.40517"
           id="g891"><g
             transform="matrix(0.75069006,0,0,0.75069006,-488.29789,383.46517)"
             style="stroke-width:5.86816"
             id="g893"
             clip-path="url(#clipPath897)"><g
               style="stroke-width:5.86816"
               id="g899"
               transform="translate(122.4563,136.5659)"><path
                 d="m 0,0 c 0.84,-2.311 2.047,-4.289 3.622,-5.933 1.575,-1.645 3.413,-2.905 5.513,-3.78 2.099,-0.876 4.41,-1.312 6.929,-1.312 2.451,0 4.726,0.455 6.826,1.365 2.1,0.909 3.937,2.205 5.512,3.885 1.576,1.68 2.818,3.691 3.728,6.038 0.909,2.343 1.365,4.951 1.365,7.822 v 1.26 c 0,2.799 -0.456,5.371 -1.365,7.717 -0.91,2.345 -2.152,4.358 -3.728,6.038 -1.575,1.68 -3.43,2.993 -5.565,3.937 -2.136,0.945 -4.394,1.418 -6.773,1.418 -2.451,0 -4.743,-0.456 -6.876,-1.365 C 7.051,26.18 5.197,24.885 3.622,23.205 2.047,21.524 0.821,19.53 -0.053,17.22 -0.929,14.91 -1.365,12.354 -1.365,9.555 V 7.875 C -1.365,4.935 -0.911,2.31 0,0 m -9.766,9.555 c 0,4.2 0.665,7.962 1.995,11.288 1.33,3.323 3.115,6.124 5.356,8.399 2.239,2.275 4.864,4.007 7.875,5.197 3.009,1.19 6.195,1.786 9.555,1.786 3.57,0 6.912,-0.787 10.027,-2.363 3.114,-1.575 5.513,-4.008 7.192,-7.298 h 1.261 v 29.611 h 8.19 v -73.5 h -8.19 v 7.98 h -1.261 c -0.839,-1.611 -1.907,-3.01 -3.202,-4.2 -1.296,-1.191 -2.695,-2.171 -4.2,-2.94 -1.506,-0.771 -3.098,-1.347 -4.777,-1.733 -1.68,-0.384 -3.291,-0.577 -4.83,-0.577 -3.501,0 -6.756,0.596 -9.765,1.785 -3.011,1.19 -5.653,2.904 -7.928,5.145 -2.275,2.239 -4.06,5.022 -5.354,8.347 -1.297,3.325 -1.944,7.122 -1.944,11.393 z"
                 style="fill:#0005df;fill-opacity:1;fill-rule:nonzero;stroke:none;stroke-width:5.86816"
                 id="path901" /></g><g
               style="stroke-width:5.86816"
               id="g903"
               transform="translate(181.886,150.3207)"><path
                 d="m 0,0 h 33.6 c -0.141,2.239 -0.683,4.269 -1.627,6.09 -0.946,1.819 -2.171,3.36 -3.676,4.62 -1.506,1.26 -3.221,2.239 -5.145,2.94 -1.925,0.699 -3.903,1.05 -5.932,1.05 -2.31,0 -4.463,-0.368 -6.458,-1.102 C 8.768,12.862 7.017,11.829 5.512,10.5 4.006,9.169 2.782,7.612 1.837,5.827 0.893,4.042 0.278,2.1 0,0 m -8.4,-5.67 v 2.52 c 0,3.639 0.646,7.035 1.942,10.185 1.295,3.15 3.098,5.861 5.407,8.138 2.311,2.273 5.023,4.058 8.138,5.354 3.114,1.295 6.492,1.943 10.133,1.943 4.268,0 7.962,-0.787 11.077,-2.363 3.114,-1.575 5.67,-3.517 7.665,-5.827 1.995,-2.31 3.465,-4.83 4.41,-7.56 0.945,-2.73 1.418,-5.25 1.418,-7.56 v -6.721 h -42 c 0.21,-5.18 1.819,-9.344 4.83,-12.494 3.009,-3.15 7.208,-4.725 12.6,-4.725 2.449,0 4.584,0.279 6.405,0.84 1.819,0.559 3.376,1.329 4.672,2.31 1.295,0.98 2.345,2.116 3.15,3.412 0.804,1.295 1.452,2.678 1.943,4.148 l 7.77,-2.1 c -1.471,-4.83 -4.183,-8.767 -8.138,-11.812 -3.956,-3.045 -9.293,-4.568 -16.012,-4.568 -3.711,0 -7.124,0.648 -10.238,1.943 -3.116,1.294 -5.793,3.131 -8.033,5.512 -2.24,2.379 -3.989,5.214 -5.25,8.505 -1.26,3.289 -1.889,6.93 -1.889,10.92"
                 style="fill:#0005df;fill-opacity:1;fill-rule:nonzero;stroke:none;stroke-width:5.86816"
                 id="path905" /></g><g
               style="stroke-width:5.86816"
               id="g907"
               transform="translate(237.8509,171.3207)"><path
                 d="m 0,0 15.96,-48.3 h 1.26 L 33.18,0 h 9.66 L 24.675,-52.08 H 8.505 L -9.66,0 Z"
                 style="fill:#0005df;fill-opacity:1;fill-rule:nonzero;stroke:none;stroke-width:5.86816"
                 id="path909" /></g><g
               style="stroke-width:5.86816"
               id="g911"
               transform="translate(303.6068,171.3207)"><path
                 d="m 0,0 v 13.229 c 0,2.379 0.752,4.34 2.258,5.881 1.505,1.538 3.447,2.31 5.827,2.31 h 20.58 V 13.86 H 11.025 C 9.136,13.86 8.19,12.81 8.19,10.71 V 0 H 29.926 V -7.561 H 8.19 V -52.08 H 0 V -7.561 H -16.064 V 0 Z"
                 style="fill:#0005df;fill-opacity:1;fill-rule:nonzero;stroke:none;stroke-width:5.86816"
                 id="path913" /></g><g
               style="stroke-width:5.86816"
               id="g915"
               transform="translate(344.5794,150.3207)"><path
                 d="m 0,0 h 33.601 c -0.142,2.239 -0.683,4.269 -1.628,6.09 -0.946,1.819 -2.171,3.36 -3.675,4.62 -1.506,1.26 -3.221,2.239 -5.146,2.94 -1.925,0.699 -3.902,1.05 -5.932,1.05 -2.31,0 -4.462,-0.368 -6.457,-1.102 C 8.768,12.862 7.018,11.829 5.513,10.5 4.007,9.169 2.782,7.612 1.838,5.827 0.893,4.042 0.279,2.1 0,0 m -8.399,-5.67 v 2.52 c 0,3.639 0.645,7.035 1.942,10.185 1.294,3.15 3.098,5.861 5.407,8.138 2.31,2.273 5.022,4.058 8.138,5.354 3.113,1.295 6.492,1.943 10.132,1.943 4.269,0 7.962,-0.787 11.078,-2.363 3.113,-1.575 5.67,-3.517 7.665,-5.827 1.995,-2.31 3.465,-4.83 4.41,-7.56 0.944,-2.73 1.417,-5.25 1.417,-7.56 v -6.721 h -42 c 0.21,-5.18 1.819,-9.344 4.83,-12.494 3.009,-3.15 7.209,-4.725 12.6,-4.725 2.45,0 4.584,0.279 6.405,0.84 1.819,0.559 3.377,1.329 4.673,2.31 1.294,0.98 2.345,2.116 3.149,3.412 0.805,1.295 1.452,2.678 1.944,4.148 l 7.769,-2.1 C 39.69,-21 36.977,-24.937 33.022,-27.982 29.067,-31.027 23.73,-32.55 17.01,-32.55 c -3.711,0 -7.123,0.648 -10.238,1.943 -3.115,1.294 -5.793,3.131 -8.032,5.512 -2.241,2.379 -3.99,5.214 -5.25,8.505 -1.26,3.289 -1.889,6.93 -1.889,10.92"
                 style="fill:#0005df;fill-opacity:1;fill-rule:nonzero;stroke:none;stroke-width:5.86816"
                 id="path917" /></g><g
               style="stroke-width:5.86816"
               id="g919"
               transform="translate(402.6409,138.561)"><path
                 d="m 0,0 c 0.35,-3.99 1.89,-7.192 4.62,-9.607 2.73,-2.415 6.369,-3.623 10.92,-3.623 3.849,0 6.946,0.751 9.292,2.257 2.345,1.504 3.518,3.622 3.518,6.353 0,2.939 -1.155,5.04 -3.465,6.3 -2.31,1.259 -6.056,2.063 -11.235,2.415 -6.021,0.42 -10.641,1.819 -13.86,4.2 -3.221,2.379 -4.83,5.844 -4.83,10.394 v 0.63 c 0,2.451 0.525,4.603 1.575,6.458 1.05,1.854 2.468,3.412 4.252,4.672 1.785,1.261 3.797,2.205 6.038,2.836 2.239,0.63 4.584,0.944 7.035,0.944 3.429,0 6.44,-0.472 9.03,-1.416 2.589,-0.946 4.759,-2.171 6.51,-3.676 1.748,-1.506 3.097,-3.239 4.042,-5.198 0.946,-1.96 1.557,-3.92 1.838,-5.879 l -7.77,-1.89 c -0.351,3.359 -1.698,5.984 -4.042,7.875 -2.347,1.89 -5.408,2.835 -9.188,2.835 -1.47,0 -2.887,-0.157 -4.253,-0.473 C 8.662,26.092 7.455,25.62 6.405,24.989 5.355,24.359 4.515,23.572 3.885,22.627 3.255,21.683 2.94,20.58 2.94,19.319 2.94,16.8 4.007,14.874 6.143,13.545 8.277,12.214 12.18,11.34 17.85,10.92 23.94,10.429 28.576,8.978 31.763,6.562 34.947,4.147 36.54,0.63 36.54,-3.99 v -0.63 c 0,-2.521 -0.509,-4.777 -1.522,-6.773 -1.016,-1.995 -2.415,-3.693 -4.201,-5.092 -1.785,-1.402 -3.955,-2.468 -6.509,-3.202 -2.557,-0.736 -5.339,-1.103 -8.348,-1.103 -4.061,0 -7.544,0.543 -10.447,1.627 -2.906,1.085 -5.321,2.52 -7.245,4.306 -1.926,1.784 -3.378,3.814 -4.358,6.089 -0.981,2.274 -1.541,4.568 -1.68,6.877 z"
                 style="fill:#0005df;fill-opacity:1;fill-rule:nonzero;stroke:none;stroke-width:5.86816"
                 id="path921" /></g><g
               style="stroke-width:5.86816"
               id="g923"
               transform="translate(444.6478,171.3207)"><path
                 d="m 0,0 h 16.38 v 21.42 h 8.189 V 0 h 20.16 V -7.561 H 24.569 V -41.37 c 0,-2.1 0.946,-3.151 2.835,-3.151 H 42.21 V -52.08 H 24.465 c -2.381,0 -4.323,0.769 -5.828,2.309 -1.506,1.54 -2.257,3.5 -2.257,5.881 V -7.561 H 0 Z"
                 style="fill:#0005df;fill-opacity:1;fill-rule:nonzero;stroke:none;stroke-width:5.86816"
                 id="path925" /></g></g></g><text
           y="-421.58981"
           x="-423.49811"
           transform="scale(1,-1)"
           style="font-variant:normal;font-weight:normal;font-stretch:normal;font-size:37.5345px;font-family:'Space Mono';-inkscape-font-specification:SpaceMono-Regular;writing-mode:lr-tb;fill:#0005df;fill-opacity:1;fill-rule:nonzero;stroke:none;stroke-width:4.40517"
           id="text929"><tspan
             y="-421.58981"
             x="-423.49811"
             style="stroke-width:4.40517"
             sodipodi:role="line"
             id="tspan927">Portugal</tspan></text><g
           transform="matrix(0.75069006,0,0,0.75069006,-488.29789,383.46517)"
           style="stroke-width:5.86816"
           id="g931"><g
             style="stroke-width:5.86816"
             id="g933"
             clip-path="url(#clipPath937)"><g
               style="stroke-width:5.86816"
               id="g939"
               transform="translate(396.0296,73.2143)"><path
                 d="m 0,0 c 0,1.6 0.267,3.133 0.8,4.6 0.533,1.466 1.316,2.766 2.349,3.9 1.034,1.133 2.317,2.033 3.851,2.7 1.532,0.666 3.3,1 5.3,1 2.033,0 3.8,-0.308 5.3,-0.925 1.5,-0.617 2.75,-1.433 3.75,-2.45 1,-1.017 1.741,-2.167 2.225,-3.45 C 24.058,4.092 24.3,2.783 24.3,1.45 v -0.9 c 0,-2.667 -0.834,-4.943 -2.5,-6.825 C 20.133,-8.158 17.466,-9.5 13.8,-10.3 10.6,-11 8.25,-11.925 6.75,-13.075 5.25,-14.225 4.5,-15.9 4.5,-18.1 v -1.5 H 24 v -3.9 H 0.3 v 6 c 0,1.6 0.266,2.991 0.8,4.175 0.533,1.182 1.292,2.2 2.275,3.05 0.982,0.85 2.175,1.558 3.575,2.125 1.4,0.566 2.983,1.05 4.75,1.45 2.966,0.667 5.108,1.616 6.425,2.85 1.316,1.233 1.975,2.75 1.975,4.55 V 1 c 0,0.9 -0.15,1.783 -0.451,2.65 C 19.35,4.517 18.883,5.3 18.25,6 17.616,6.7 16.808,7.258 15.825,7.675 14.841,8.092 13.666,8.3 12.3,8.3 9.732,8.3 7.741,7.517 6.325,5.95 4.907,4.383 4.2,2.3 4.2,-0.3 V -2.5 H 0 Z"
                 style="fill:#0005df;fill-opacity:1;fill-rule:nonzero;stroke:none;stroke-width:5.86816"
                 id="path941" /></g><g
               style="stroke-width:5.86816"
               id="g943"
               transform="translate(430.6292,70.8139)"><path
                 d="m 0,0 v -7.199 c 0,-3.434 0.675,-6.093 2.024,-7.976 C 3.375,-17.059 5.399,-18 8.1,-18 c 2.7,0 4.725,0.941 6.075,2.825 1.349,1.883 2.025,4.542 2.025,7.976 V 0 c 0,1.601 -0.168,3.059 -0.5,4.375 -0.334,1.316 -0.843,2.45 -1.525,3.4 C 13.491,8.726 12.642,9.467 11.625,10 10.607,10.533 9.433,10.801 8.1,10.801 6.732,10.801 5.55,10.533 4.55,10 3.55,9.467 2.708,8.726 2.024,7.775 1.341,6.825 0.833,5.691 0.5,4.375 0.166,3.059 0,1.601 0,0 m -0.95,10.851 c 2.166,2.5 5.182,3.75 9.05,3.75 3.866,0 6.882,-1.25 9.049,-3.75 2.167,-2.5 3.25,-6.018 3.25,-10.55 V -7.5 c 0,-4.667 -1.083,-8.217 -3.25,-10.649 -2.167,-2.434 -5.183,-3.651 -9.049,-3.651 -3.868,0 -6.884,1.217 -9.05,3.651 -2.167,2.432 -3.25,5.982 -3.25,10.649 v 7.801 c 0,4.532 1.083,8.05 3.25,10.55"
                 style="fill:#0005df;fill-opacity:1;fill-rule:nonzero;stroke:none;stroke-width:5.86816"
                 id="path945" /></g><g
               style="stroke-width:5.86816"
               id="g947"
               transform="translate(457.2288,73.2143)"><path
                 d="m 0,0 c 0,1.6 0.267,3.133 0.8,4.6 0.533,1.466 1.316,2.766 2.349,3.9 1.034,1.133 2.317,2.033 3.851,2.7 1.532,0.666 3.3,1 5.3,1 2.033,0 3.8,-0.308 5.3,-0.925 1.5,-0.617 2.75,-1.433 3.75,-2.45 1,-1.017 1.741,-2.167 2.225,-3.45 C 24.058,4.092 24.3,2.783 24.3,1.45 v -0.9 c 0,-2.667 -0.834,-4.943 -2.5,-6.825 C 20.133,-8.158 17.466,-9.5 13.8,-10.3 10.6,-11 8.25,-11.925 6.75,-13.075 5.25,-14.225 4.5,-15.9 4.5,-18.1 v -1.5 H 24 v -3.9 H 0.3 v 6 c 0,1.6 0.266,2.991 0.8,4.175 0.533,1.182 1.292,2.2 2.275,3.05 0.982,0.85 2.175,1.558 3.575,2.125 1.4,0.566 2.983,1.05 4.75,1.45 2.966,0.667 5.108,1.616 6.425,2.85 1.316,1.233 1.975,2.75 1.975,4.55 V 1 c 0,0.9 -0.15,1.783 -0.451,2.65 C 19.35,4.517 18.883,5.3 18.25,6 17.616,6.7 16.808,7.258 15.825,7.675 14.841,8.092 13.666,8.3 12.3,8.3 9.732,8.3 7.741,7.517 6.325,5.95 4.907,4.383 4.2,2.3 4.2,-0.3 V -2.5 H 0 Z"
                 style="fill:#0005df;fill-opacity:1;fill-rule:nonzero;stroke:none;stroke-width:5.86816"
                 id="path949" /></g><g
               style="stroke-width:5.86816"
               id="g951"
               transform="translate(491.8284,70.8139)"><path
                 d="m 0,0 v -7.199 c 0,-3.434 0.675,-6.093 2.024,-7.976 C 3.375,-17.059 5.399,-18 8.1,-18 c 2.7,0 4.725,0.941 6.075,2.825 1.349,1.883 2.025,4.542 2.025,7.976 V 0 c 0,1.601 -0.168,3.059 -0.5,4.375 -0.334,1.316 -0.843,2.45 -1.525,3.4 C 13.491,8.726 12.642,9.467 11.625,10 10.607,10.533 9.433,10.801 8.1,10.801 6.732,10.801 5.55,10.533 4.55,10 3.55,9.467 2.708,8.726 2.024,7.775 1.341,6.825 0.833,5.691 0.5,4.375 0.166,3.059 0,1.601 0,0 m -0.95,10.851 c 2.166,2.5 5.182,3.75 9.05,3.75 3.866,0 6.882,-1.25 9.049,-3.75 2.167,-2.5 3.25,-6.018 3.25,-10.55 V -7.5 c 0,-4.667 -1.083,-8.217 -3.25,-10.649 -2.167,-2.434 -5.183,-3.651 -9.049,-3.651 -3.868,0 -6.884,1.217 -9.05,3.651 -2.167,2.432 -3.25,5.982 -3.25,10.649 v 7.801 c 0,4.532 1.083,8.05 3.25,10.55"
                 style="fill:#0005df;fill-opacity:1;fill-rule:nonzero;stroke:none;stroke-width:5.86816"
                 id="path953" /></g><g
               style="stroke-width:5.86816"
               id="g955"
               transform="translate(237.9554,238.4028)"><path
                 d="m 0,0 11.176,6.453 c 2.631,1.519 3.532,4.882 2.013,7.512 -1.518,2.63 -4.881,3.532 -7.512,2.013 L -13.635,4.828 Z"
                 style="fill:#ea4335;fill-opacity:1;fill-rule:nonzero;stroke:none;stroke-width:5.86816"
                 id="path957" /></g><g
               style="stroke-width:5.86816"
               id="g959"
               transform="translate(246.3772,221.8178)"><path
                 d="m 0,0 c 1.9,0 3.749,0.987 4.768,2.751 1.518,2.63 0.617,5.993 -2.014,7.512 l -19.312,11.15 c -2.63,1.52 -5.993,0.617 -7.512,-2.013 -1.519,-2.63 -0.617,-5.994 2.013,-7.512 L -2.745,0.738 C -1.879,0.238 -0.934,0 0,0"
                 style="fill:#4285f4;fill-opacity:1;fill-rule:nonzero;stroke:none;stroke-width:5.86816"
                 id="path961" /></g><g
               style="stroke-width:5.86816"
               id="g963"
               transform="translate(265.5872,221.8178)"><path
                 d="M 0,0 C 0.934,0 1.879,0.238 2.745,0.738 L 22.057,11.888 8.595,16.815 -2.755,10.263 C -5.385,8.744 -6.286,5.381 -4.768,2.751 -3.749,0.987 -1.9,0 0,0"
                 style="fill:#fbbc04;fill-opacity:1;fill-rule:nonzero;stroke:none;stroke-width:5.86816"
                 id="path965" /></g><g
               style="stroke-width:5.86816"
               id="g967"
               transform="translate(284.889,232.9682)"><path
                 d="m 0,0 c 1.901,0 3.749,0.986 4.768,2.75 1.518,2.631 0.618,5.993 -2.013,7.513 l -19.312,11.149 c -2.63,1.519 -5.993,0.618 -7.512,-2.013 -1.519,-2.629 -0.618,-5.993 2.012,-7.511 L -2.744,0.737 C -1.878,0.237 -0.933,0 0,0"
                 style="fill:#0f9d58;fill-opacity:1;fill-rule:nonzero;stroke:none;stroke-width:5.86816"
                 id="path969" /></g><g
               style="stroke-width:5.86816"
               id="g971"
               transform="translate(312.2337,227.4194)"><path
                 d="m 0,0 c -1.922,1.107 -3.448,2.634 -4.579,4.578 -1.13,1.944 -1.695,4.092 -1.695,6.444 0,2.351 0.565,4.499 1.695,6.444 1.131,1.943 2.657,3.47 4.579,4.578 1.921,1.107 4.023,1.661 6.308,1.661 1.785,0 3.463,-0.316 5.036,-0.949 1.57,-0.634 2.865,-1.527 3.883,-2.679 l -2.07,-2.069 c -0.768,0.95 -1.752,1.679 -2.95,2.187 -1.198,0.509 -2.487,0.763 -3.866,0.763 -1.718,0 -3.318,-0.412 -4.798,-1.237 -1.481,-0.825 -2.668,-1.991 -3.562,-3.493 -0.892,-1.504 -1.338,-3.239 -1.338,-5.206 0,-1.967 0.446,-3.703 1.338,-5.206 C -1.125,4.312 0.067,3.148 1.56,2.323 3.052,1.498 4.646,1.086 6.341,1.086 c 1.628,0 2.99,0.254 4.087,0.763 1.096,0.508 2.04,1.18 2.832,2.017 0.587,0.633 1.062,1.396 1.424,2.289 0.361,0.894 0.587,1.883 0.678,2.968 H 6.375 v 2.679 h 11.666 c 0.113,-0.633 0.17,-1.221 0.17,-1.764 0,-1.491 -0.237,-2.944 -0.713,-4.357 C 17.023,4.268 16.266,3.029 15.227,1.968 12.988,-0.452 10.015,-1.661 6.308,-1.661 4.023,-1.661 1.921,-1.107 0,0"
                 style="fill:#0c0c0c;fill-opacity:1;fill-rule:nonzero;stroke:none;stroke-width:5.86816"
                 id="path973" /></g><g
               style="stroke-width:5.86816"
               id="g975"
               transform="translate(341.3636,229.0473)"><path
                 d="m 0,0 c 2.871,0 5.149,0.825 6.834,2.476 1.684,1.65 2.526,3.956 2.526,6.919 0,2.96 -0.842,5.267 -2.526,6.917 C 5.149,17.962 2.871,18.788 0,18.788 H -4.477 V 0 Z M -7.325,21.535 H 0 c 2.487,0 4.657,-0.514 6.512,-1.543 1.853,-1.029 3.277,-2.459 4.272,-4.29 0.995,-1.832 1.492,-3.934 1.492,-6.307 0,-2.374 -0.497,-4.477 -1.492,-6.309 C 9.789,1.255 8.365,-0.175 6.512,-1.204 4.657,-2.232 2.487,-2.747 0,-2.747 h -7.325 z"
                 style="fill:#0c0c0c;fill-opacity:1;fill-rule:nonzero;stroke:none;stroke-width:5.86816"
                 id="path977" /></g><g
               style="stroke-width:5.86816"
               id="g979"
               transform="translate(362.2874,227.4194)"><path
                 d="m 0,0 c -1.922,1.107 -3.447,2.634 -4.578,4.578 -1.131,1.944 -1.695,4.092 -1.695,6.444 0,2.351 0.564,4.499 1.695,6.444 1.131,1.943 2.656,3.47 4.578,4.578 1.922,1.107 4.024,1.661 6.308,1.661 1.786,0 3.464,-0.316 5.036,-0.949 1.571,-0.634 2.866,-1.527 3.883,-2.679 l -2.069,-2.069 c -0.768,0.95 -1.752,1.679 -2.95,2.187 -1.198,0.509 -2.487,0.763 -3.866,0.763 -1.719,0 -3.319,-0.412 -4.799,-1.237 -1.481,-0.825 -2.668,-1.991 -3.561,-3.493 -0.893,-1.504 -1.339,-3.239 -1.339,-5.206 0,-1.967 0.446,-3.703 1.339,-5.206 C -1.125,4.312 0.068,3.148 1.561,2.323 3.053,1.498 4.646,1.086 6.342,1.086 c 1.628,0 2.989,0.254 4.087,0.763 1.095,0.508 2.04,1.18 2.831,2.017 0.588,0.633 1.062,1.396 1.425,2.289 0.361,0.894 0.587,1.883 0.677,2.968 H 6.376 v 2.679 h 11.666 c 0.112,-0.633 0.169,-1.221 0.169,-1.764 0,-1.491 -0.237,-2.944 -0.712,-4.357 C 17.024,4.268 16.267,3.029 15.227,1.968 12.989,-0.452 10.016,-1.661 6.308,-1.661 4.024,-1.661 1.922,-1.107 0,0"
                 style="fill:#0c0c0c;fill-opacity:1;fill-rule:nonzero;stroke:none;stroke-width:5.86816"
                 id="path981" /></g></g></g></g></a></g><text
     transform="scale(1,-1)"
     id="text383"
     y="-218.08049"
     x="3002.5557"
     style="font-style:normal;font-weight:normal;font-size:30px;line-height:1.25;font-family:sans-serif;white-space:pre;inline-size:95.3387;fill:#000000;fill-opacity:1;stroke:none;stroke-width:0.75"
     xml:space="preserve"><tspan
       x="3002.5557"
       y="-218.08049"><tspan
         style="stroke-width:0.75">rer</tspan></tspan></text><text
     style="fill:black;fill-opacity:1;line-height:1.25;stroke:none;font-family:sans-serif;font-style:normal;font-weight:normal;font-size:30.00000075px;white-space:pre;shape-inside:url(#rect395);"
     id="text393"
     xml:space="preserve" /><g
     style="stroke-width:1.67318"
     id="g569"
     inkscape:label="Copy of GDG_DevFest_Logo (1)"
     transform="matrix(0.59766172,0,0,0.59766172,1869.9547,284.72008)"><g
       style="stroke-width:1.67318"
       id="g738"><g
         id="g571"
         transform="matrix(0.37423762,0,0,0.37423762,283.6823,8.835337)"
         style="stroke-width:4.47093"><g
           clip-path="url(#clipPath577)"
           id="g573"
           style="stroke-width:4.47093"><g
             transform="translate(127.3353,137.6314)"
             id="g579"
             style="stroke-width:4.47093"><path
               id="path581"
               style="fill:#0005df;fill-opacity:1;fill-rule:nonzero;stroke:none;stroke-width:4.47093"
               d="m 0,0 c 0.84,-2.311 2.048,-4.289 3.623,-5.933 1.575,-1.645 3.412,-2.905 5.513,-3.78 2.099,-0.876 4.409,-1.312 6.929,-1.312 2.45,0 4.725,0.455 6.826,1.365 2.099,0.909 3.937,2.205 5.511,3.885 1.576,1.68 2.818,3.691 3.728,6.038 0.909,2.343 1.365,4.951 1.365,7.822 v 1.26 c 0,2.799 -0.456,5.371 -1.365,7.717 -0.91,2.345 -2.152,4.358 -3.728,6.038 -1.574,1.68 -3.429,2.993 -5.564,3.937 -2.136,0.945 -4.394,1.418 -6.773,1.418 -2.451,0 -4.743,-0.456 -6.877,-1.365 C 7.052,26.18 5.198,24.885 3.623,23.205 2.048,21.524 0.822,19.53 -0.052,17.22 -0.929,14.91 -1.364,12.354 -1.364,9.555 V 7.875 C -1.364,4.935 -0.91,2.31 0,0 m -9.765,9.555 c 0,4.2 0.664,7.962 1.995,11.288 1.33,3.323 3.114,6.124 5.355,8.399 2.24,2.275 4.865,4.007 7.875,5.197 3.009,1.19 6.195,1.786 9.556,1.786 3.569,0 6.911,-0.787 10.027,-2.363 3.113,-1.575 5.513,-4.008 7.192,-7.298 h 1.26 v 29.611 h 8.191 v -73.5 h -8.191 v 7.98 h -1.26 c -0.839,-1.611 -1.908,-3.01 -3.202,-4.2 -1.297,-1.191 -2.696,-2.171 -4.2,-2.94 -1.506,-0.771 -3.098,-1.347 -4.777,-1.733 -1.681,-0.384 -3.291,-0.577 -4.83,-0.577 -3.501,0 -6.757,0.596 -9.766,1.785 -3.01,1.19 -5.653,2.904 -7.927,5.145 -2.276,2.239 -4.06,5.022 -5.355,8.347 -1.296,3.325 -1.943,7.122 -1.943,11.393 z" /></g><g
             transform="translate(186.7649,151.3863)"
             id="g583"
             style="stroke-width:4.47093"><path
               id="path585"
               style="fill:#0005df;fill-opacity:1;fill-rule:nonzero;stroke:none;stroke-width:4.47093"
               d="m 0,0 h 33.601 c -0.142,2.239 -0.683,4.269 -1.628,6.09 -0.946,1.819 -2.171,3.36 -3.675,4.62 -1.506,1.26 -3.221,2.239 -5.146,2.94 -1.925,0.699 -3.902,1.05 -5.932,1.05 -2.31,0 -4.462,-0.368 -6.457,-1.102 C 8.768,12.862 7.018,11.829 5.513,10.5 4.007,9.169 2.782,7.612 1.838,5.827 0.893,4.042 0.279,2.1 0,0 m -8.399,-5.67 v 2.52 c 0,3.639 0.645,7.035 1.942,10.185 1.294,3.15 3.098,5.861 5.407,8.138 2.31,2.273 5.022,4.058 8.138,5.354 3.113,1.295 6.492,1.943 10.132,1.943 4.269,0 7.962,-0.787 11.078,-2.363 3.113,-1.575 5.67,-3.517 7.665,-5.827 1.995,-2.31 3.465,-4.83 4.41,-7.56 0.944,-2.73 1.417,-5.25 1.417,-7.56 v -6.721 h -42 c 0.21,-5.18 1.819,-9.344 4.83,-12.494 3.009,-3.15 7.209,-4.725 12.6,-4.725 2.45,0 4.584,0.279 6.405,0.84 1.819,0.559 3.377,1.329 4.673,2.31 1.294,0.98 2.345,2.116 3.149,3.412 0.805,1.295 1.452,2.678 1.944,4.148 l 7.769,-2.1 C 39.69,-21 36.977,-24.937 33.022,-27.982 29.067,-31.027 23.73,-32.55 17.01,-32.55 c -3.711,0 -7.123,0.648 -10.238,1.943 -3.115,1.294 -5.793,3.131 -8.032,5.512 -2.241,2.379 -3.99,5.214 -5.25,8.505 -1.26,3.289 -1.889,6.93 -1.889,10.92" /></g><g
             transform="translate(242.7298,172.3863)"
             id="g587"
             style="stroke-width:4.47093"><path
               id="path589"
               style="fill:#0005df;fill-opacity:1;fill-rule:nonzero;stroke:none;stroke-width:4.47093"
               d="m 0,0 15.96,-48.3 h 1.26 L 33.181,0 H 42.84 L 24.675,-52.08 H 8.505 L -9.66,0 Z" /></g><g
             transform="translate(308.4866,172.3863)"
             id="g591"
             style="stroke-width:4.47093"><path
               id="path593"
               style="fill:#0005df;fill-opacity:1;fill-rule:nonzero;stroke:none;stroke-width:4.47093"
               d="m 0,0 v 13.229 c 0,2.379 0.751,4.34 2.258,5.881 1.504,1.538 3.446,2.31 5.827,2.31 h 20.58 V 13.86 H 11.025 C 9.135,13.86 8.19,12.81 8.19,10.71 V 0 H 29.925 V -7.561 H 8.19 V -52.08 H 0 V -7.561 H -16.065 V 0 Z" /></g><g
             transform="translate(349.4593,151.3863)"
             id="g595"
             style="stroke-width:4.47093"><path
               id="path597"
               style="fill:#0005df;fill-opacity:1;fill-rule:nonzero;stroke:none;stroke-width:4.47093"
               d="m 0,0 h 33.6 c -0.141,2.239 -0.683,4.269 -1.627,6.09 -0.946,1.819 -2.171,3.36 -3.676,4.62 -1.506,1.26 -3.221,2.239 -5.145,2.94 -1.925,0.699 -3.903,1.05 -5.932,1.05 -2.31,0 -4.463,-0.368 -6.458,-1.102 C 8.768,12.862 7.017,11.829 5.512,10.5 4.006,9.169 2.782,7.612 1.837,5.827 0.893,4.042 0.278,2.1 0,0 m -8.4,-5.67 v 2.52 c 0,3.639 0.646,7.035 1.942,10.185 1.295,3.15 3.098,5.861 5.407,8.138 2.311,2.273 5.023,4.058 8.138,5.354 3.114,1.295 6.492,1.943 10.133,1.943 4.268,0 7.962,-0.787 11.077,-2.363 3.114,-1.575 5.67,-3.517 7.665,-5.827 1.995,-2.31 3.465,-4.83 4.41,-7.56 0.945,-2.73 1.418,-5.25 1.418,-7.56 v -6.721 h -42 c 0.21,-5.18 1.819,-9.344 4.83,-12.494 3.009,-3.15 7.208,-4.725 12.6,-4.725 2.449,0 4.584,0.279 6.405,0.84 1.819,0.559 3.376,1.329 4.672,2.31 1.295,0.98 2.345,2.116 3.15,3.412 0.804,1.295 1.452,2.678 1.943,4.148 l 7.77,-2.1 c -1.471,-4.83 -4.183,-8.767 -8.138,-11.812 -3.956,-3.045 -9.293,-4.568 -16.012,-4.568 -3.711,0 -7.124,0.648 -10.238,1.943 -3.116,1.294 -5.793,3.131 -8.033,5.512 -2.24,2.379 -3.989,5.214 -5.25,8.505 -1.26,3.289 -1.889,6.93 -1.889,10.92" /></g><g
             transform="translate(407.5198,139.6265)"
             id="g599"
             style="stroke-width:4.47093"><path
               id="path601"
               style="fill:#0005df;fill-opacity:1;fill-rule:nonzero;stroke:none;stroke-width:4.47093"
               d="m 0,0 c 0.35,-3.99 1.891,-7.192 4.62,-9.607 2.731,-2.415 6.369,-3.623 10.92,-3.623 3.85,0 6.947,0.751 9.293,2.257 2.345,1.504 3.518,3.622 3.518,6.353 0,2.939 -1.156,5.04 -3.465,6.3 -2.311,1.259 -6.056,2.063 -11.236,2.415 -6.021,0.42 -10.64,1.819 -13.86,4.2 -3.22,2.379 -4.829,5.844 -4.829,10.394 v 0.63 c 0,2.451 0.524,4.603 1.574,6.458 1.051,1.854 2.468,3.412 4.253,4.672 1.785,1.261 3.796,2.205 6.037,2.836 2.239,0.63 4.584,0.944 7.035,0.944 3.429,0 6.44,-0.472 9.031,-1.416 2.588,-0.946 4.759,-2.171 6.509,-3.676 1.749,-1.506 3.098,-3.239 4.043,-5.198 0.945,-1.96 1.557,-3.92 1.837,-5.879 l -7.769,-1.89 c -0.352,3.359 -1.699,5.984 -4.043,7.875 -2.346,1.89 -5.407,2.835 -9.188,2.835 -1.469,0 -2.887,-0.157 -4.252,-0.473 C 8.663,26.092 7.455,25.62 6.405,24.989 5.355,24.359 4.516,23.572 3.886,22.627 3.256,21.683 2.94,20.58 2.94,19.319 2.94,16.8 4.007,14.874 6.143,13.545 8.277,12.214 12.181,11.34 17.851,10.92 23.94,10.429 28.577,8.978 31.763,6.562 34.947,4.147 36.54,0.63 36.54,-3.99 v -0.63 c 0,-2.521 -0.508,-4.777 -1.522,-6.773 -1.016,-1.995 -2.415,-3.693 -4.2,-5.092 -1.785,-1.402 -3.956,-2.468 -6.51,-3.202 -2.556,-0.736 -5.338,-1.103 -8.347,-1.103 -4.061,0 -7.544,0.543 -10.448,1.627 -2.906,1.085 -5.321,2.52 -7.245,4.306 -1.926,1.784 -3.378,3.814 -4.358,6.089 -0.98,2.274 -1.54,4.568 -1.68,6.877 z" /></g><g
             transform="translate(449.5276,172.3863)"
             id="g603"
             style="stroke-width:4.47093"><path
               id="path605"
               style="fill:#0005df;fill-opacity:1;fill-rule:nonzero;stroke:none;stroke-width:4.47093"
               d="m 0,0 h 16.38 v 21.42 h 8.189 V 0 h 20.16 V -7.561 H 24.569 V -41.37 c 0,-2.1 0.946,-3.15 2.835,-3.15 H 42.21 v -7.56 H 24.465 c -2.381,0 -4.323,0.769 -5.828,2.31 -1.506,1.539 -2.257,3.5 -2.257,5.88 V -7.561 H 0 Z" /></g><g
             transform="translate(249.3147,75.3531)"
             id="g607"
             style="stroke-width:4.47093"><path
               id="path609"
               style="fill:#0005df;fill-opacity:1;fill-rule:nonzero;stroke:none;stroke-width:4.47093"
               d="m 0,0 c 0,1.6 0.267,3.133 0.8,4.6 0.533,1.466 1.316,2.766 2.349,3.9 1.034,1.133 2.317,2.033 3.851,2.7 1.532,0.666 3.3,1 5.3,1 2.033,0 3.8,-0.308 5.3,-0.925 1.5,-0.617 2.75,-1.433 3.75,-2.45 1,-1.017 1.741,-2.167 2.225,-3.45 C 24.058,4.092 24.3,2.783 24.3,1.45 v -0.9 c 0,-2.667 -0.834,-4.943 -2.5,-6.825 C 20.133,-8.158 17.466,-9.5 13.8,-10.3 10.6,-11 8.25,-11.925 6.75,-13.075 5.25,-14.225 4.5,-15.9 4.5,-18.1 v -1.5 H 24 v -3.9 H 0.3 v 6 c 0,1.6 0.266,2.991 0.8,4.175 0.533,1.182 1.292,2.2 2.275,3.05 0.982,0.85 2.175,1.558 3.575,2.125 1.4,0.566 2.983,1.05 4.75,1.45 2.966,0.667 5.108,1.616 6.425,2.85 1.316,1.233 1.975,2.75 1.975,4.55 V 1 c 0,0.9 -0.15,1.783 -0.451,2.65 C 19.35,4.517 18.883,5.3 18.25,6 17.616,6.7 16.808,7.258 15.825,7.675 14.841,8.092 13.666,8.3 12.3,8.3 9.732,8.3 7.741,7.517 6.325,5.95 4.907,4.383 4.2,2.3 4.2,-0.3 V -2.5 H 0 Z" /></g><g
             transform="translate(282.9144,72.9527)"
             id="g611"
             style="stroke-width:4.47093"><path
               id="path613"
               style="fill:#0005df;fill-opacity:1;fill-rule:nonzero;stroke:none;stroke-width:4.47093"
               d="m 0,0 v -7.199 c 0,-3.434 0.675,-6.093 2.024,-7.976 C 3.375,-17.059 5.399,-18 8.1,-18 c 2.7,0 4.725,0.941 6.075,2.825 1.349,1.883 2.025,4.542 2.025,7.976 V 0 c 0,1.601 -0.168,3.059 -0.5,4.375 -0.334,1.316 -0.843,2.45 -1.525,3.4 C 13.491,8.726 12.642,9.467 11.625,10 10.607,10.533 9.433,10.801 8.1,10.801 6.732,10.801 5.55,10.533 4.55,10 3.55,9.467 2.708,8.726 2.024,7.775 1.341,6.825 0.833,5.691 0.5,4.375 0.166,3.059 0,1.601 0,0 m -0.95,10.851 c 2.166,2.5 5.182,3.75 9.05,3.75 3.866,0 6.882,-1.25 9.049,-3.75 2.167,-2.5 3.25,-6.018 3.25,-10.55 V -7.5 c 0,-4.667 -1.083,-8.217 -3.25,-10.649 -2.167,-2.434 -5.183,-3.651 -9.049,-3.651 -3.868,0 -6.884,1.217 -9.05,3.651 -2.167,2.432 -3.25,5.982 -3.25,10.649 v 7.801 c 0,4.532 1.083,8.05 3.25,10.55" /></g><g
             transform="translate(308.514,75.3531)"
             id="g615"
             style="stroke-width:4.47093"><path
               id="path617"
               style="fill:#0005df;fill-opacity:1;fill-rule:nonzero;stroke:none;stroke-width:4.47093"
               d="m 0,0 c 0,1.6 0.267,3.133 0.8,4.6 0.533,1.466 1.316,2.766 2.349,3.9 1.034,1.133 2.317,2.033 3.851,2.7 1.532,0.666 3.3,1 5.3,1 2.033,0 3.8,-0.308 5.3,-0.925 1.5,-0.617 2.75,-1.433 3.75,-2.45 1,-1.017 1.741,-2.167 2.225,-3.45 C 24.058,4.092 24.3,2.783 24.3,1.45 v -0.9 c 0,-2.667 -0.834,-4.943 -2.5,-6.825 C 20.133,-8.158 17.466,-9.5 13.8,-10.3 10.6,-11 8.25,-11.925 6.75,-13.075 5.25,-14.225 4.5,-15.9 4.5,-18.1 v -1.5 H 24 v -3.9 H 0.3 v 6 c 0,1.6 0.266,2.991 0.8,4.175 0.533,1.182 1.292,2.2 2.275,3.05 0.982,0.85 2.175,1.558 3.575,2.125 1.4,0.566 2.983,1.05 4.75,1.45 2.966,0.667 5.108,1.616 6.425,2.85 1.316,1.233 1.975,2.75 1.975,4.55 V 1 c 0,0.9 -0.15,1.783 -0.451,2.65 C 19.35,4.517 18.883,5.3 18.25,6 17.616,6.7 16.808,7.258 15.825,7.675 14.841,8.092 13.666,8.3 12.3,8.3 9.732,8.3 7.741,7.517 6.325,5.95 4.907,4.383 4.2,2.3 4.2,-0.3 V -2.5 H 0 Z" /></g><g
             transform="translate(342.1136,72.9527)"
             id="g619"
             style="stroke-width:4.47093"><path
               id="path621"
               style="fill:#0005df;fill-opacity:1;fill-rule:nonzero;stroke:none;stroke-width:4.47093"
               d="m 0,0 v -7.199 c 0,-3.434 0.675,-6.093 2.024,-7.976 C 3.375,-17.059 5.399,-18 8.1,-18 c 2.7,0 4.725,0.941 6.075,2.825 1.349,1.883 2.025,4.542 2.025,7.976 V 0 c 0,1.601 -0.168,3.059 -0.5,4.375 -0.334,1.316 -0.843,2.45 -1.525,3.4 C 13.491,8.726 12.642,9.467 11.625,10 10.607,10.533 9.433,10.801 8.1,10.801 6.732,10.801 5.55,10.533 4.55,10 3.55,9.467 2.708,8.726 2.024,7.775 1.341,6.825 0.833,5.691 0.5,4.375 0.166,3.059 0,1.601 0,0 m -0.95,10.851 c 2.166,2.5 5.182,3.75 9.05,3.75 3.866,0 6.882,-1.25 9.049,-3.75 2.167,-2.5 3.25,-6.018 3.25,-10.55 V -7.5 c 0,-4.667 -1.083,-8.217 -3.25,-10.649 -2.167,-2.434 -5.183,-3.651 -9.049,-3.651 -3.868,0 -6.884,1.217 -9.05,3.651 -2.167,2.432 -3.25,5.982 -3.25,10.649 v 7.801 c 0,4.532 1.083,8.05 3.25,10.55" /></g><g
             transform="translate(164.553,237.2994)"
             id="g623"
             style="stroke-width:4.47093"><path
               id="path625"
               style="fill:#ea4335;fill-opacity:1;fill-rule:nonzero;stroke:none;stroke-width:4.47093"
               d="m 0,0 10.953,6.323 c 2.578,1.489 3.461,4.784 1.973,7.363 -1.488,2.577 -4.784,3.46 -7.362,1.972 L -13.362,4.73 Z" /></g><g
             transform="translate(172.8069,221.0464)"
             id="g627"
             style="stroke-width:4.47093"><path
               id="path629"
               style="fill:#4285f4;fill-opacity:1;fill-rule:nonzero;stroke:none;stroke-width:4.47093"
               d="M 0,0 C 1.862,0 3.674,0.966 4.672,2.695 6.16,5.272 5.277,8.568 2.699,10.057 l -18.926,10.926 c -2.578,1.49 -5.874,0.606 -7.362,-1.972 -1.488,-2.577 -0.604,-5.873 1.973,-7.362 L -2.689,0.723 C -1.841,0.232 -0.914,0 0,0" /></g><g
             transform="translate(191.6331,221.0464)"
             id="g631"
             style="stroke-width:4.47093"><path
               id="path633"
               style="fill:#fbbc04;fill-opacity:1;fill-rule:nonzero;stroke:none;stroke-width:4.47093"
               d="M 0,0 C 0.914,0 1.841,0.232 2.689,0.723 L 21.615,11.649 8.423,16.479 -2.7,10.057 C -5.277,8.568 -6.16,5.272 -4.673,2.695 -3.674,0.966 -1.862,0 0,0" /></g><g
             transform="translate(210.5491,231.9722)"
             id="g635"
             style="stroke-width:4.47093"><path
               id="path637"
               style="fill:#0f9d58;fill-opacity:1;fill-rule:nonzero;stroke:none;stroke-width:4.47093"
               d="M 0,0 C 1.862,0 3.674,0.967 4.672,2.696 6.16,5.273 5.277,8.569 2.699,10.058 l -18.926,10.927 c -2.578,1.488 -5.873,0.605 -7.362,-1.972 -1.487,-2.578 -0.604,-5.874 1.973,-7.363 L -2.69,0.724 C -1.842,0.233 -0.915,0 0,0" /></g><g
             transform="translate(237.346,226.5357)"
             id="g639"
             style="stroke-width:4.47093"><path
               id="path641"
               style="fill:#0c0c0c;fill-opacity:1;fill-rule:nonzero;stroke:none;stroke-width:4.47093"
               d="m 0,0 c -1.884,1.085 -3.379,2.581 -4.487,4.486 -1.108,1.906 -1.661,4.01 -1.661,6.315 0,2.304 0.553,4.409 1.661,6.314 1.108,1.906 2.603,3.402 4.487,4.488 1.883,1.084 3.943,1.627 6.182,1.627 1.75,0 3.394,-0.31 4.935,-0.93 1.539,-0.62 2.808,-1.495 3.805,-2.625 l -2.027,-2.028 c -0.753,0.931 -1.717,1.645 -2.892,2.144 -1.174,0.498 -2.438,0.748 -3.788,0.748 -1.685,0 -3.252,-0.405 -4.703,-1.214 -1.451,-0.808 -2.615,-1.949 -3.49,-3.423 -0.876,-1.473 -1.312,-3.173 -1.312,-5.101 0,-1.928 0.436,-3.628 1.312,-5.102 C -1.103,4.226 0.066,3.085 1.528,2.276 2.991,1.467 4.553,1.063 6.215,1.063 c 1.595,0 2.93,0.249 4.005,0.748 1.074,0.499 1.999,1.158 2.774,1.977 0.576,0.62 1.042,1.368 1.397,2.244 0.353,0.875 0.575,1.844 0.664,2.907 H 6.248 v 2.626 h 11.433 c 0.11,-0.621 0.166,-1.196 0.166,-1.728 0,-1.462 -0.233,-2.886 -0.699,-4.271 C 16.684,4.182 15.941,2.969 14.922,1.928 12.729,-0.443 9.814,-1.629 6.182,-1.629 3.943,-1.629 1.883,-1.086 0,0" /></g><g
             transform="translate(265.8939,228.1304)"
             id="g643"
             style="stroke-width:4.47093"><path
               id="path645"
               style="fill:#0c0c0c;fill-opacity:1;fill-rule:nonzero;stroke:none;stroke-width:4.47093"
               d="m 0,0 c 2.813,0 5.046,0.809 6.696,2.427 1.651,1.616 2.477,3.877 2.477,6.779 0,2.902 -0.826,5.162 -2.477,6.78 C 5.046,17.604 2.813,18.412 0,18.412 H -4.387 V 0 Z M -7.179,21.104 H 0 c 2.437,0 4.564,-0.504 6.381,-1.512 1.816,-1.009 3.213,-2.409 4.187,-4.204 0.975,-1.795 1.463,-3.856 1.463,-6.182 0,-2.326 -0.488,-4.387 -1.463,-6.182 C 9.594,1.229 8.197,-0.172 6.381,-1.18 4.564,-2.188 2.437,-2.691 0,-2.691 h -7.179 z" /></g><g
             transform="translate(286.3987,226.5357)"
             id="g647"
             style="stroke-width:4.47093"><path
               id="path649"
               style="fill:#0c0c0c;fill-opacity:1;fill-rule:nonzero;stroke:none;stroke-width:4.47093"
               d="m 0,0 c -1.883,1.085 -3.379,2.581 -4.486,4.486 -1.109,1.906 -1.662,4.01 -1.662,6.315 0,2.304 0.553,4.409 1.662,6.314 1.107,1.906 2.603,3.402 4.486,4.488 1.883,1.084 3.944,1.627 6.182,1.627 1.75,0 3.395,-0.31 4.935,-0.93 1.54,-0.62 2.809,-1.495 3.806,-2.625 l -2.027,-2.028 c -0.754,0.931 -1.718,1.645 -2.892,2.144 -1.175,0.498 -2.438,0.748 -3.789,0.748 -1.684,0 -3.251,-0.405 -4.702,-1.214 C 0.062,18.517 -1.103,17.376 -1.978,15.902 -2.853,14.429 -3.29,12.729 -3.29,10.801 -3.29,8.873 -2.853,7.173 -1.978,5.699 -1.103,4.226 0.066,3.085 1.529,2.276 2.991,1.467 4.554,1.063 6.215,1.063 c 1.596,0 2.93,0.249 4.005,0.748 1.074,0.499 2,1.158 2.775,1.977 0.576,0.62 1.041,1.368 1.396,2.244 0.354,0.875 0.576,1.844 0.665,2.907 H 6.248 v 2.626 h 11.433 c 0.111,-0.621 0.167,-1.196 0.167,-1.728 0,-1.462 -0.234,-2.886 -0.699,-4.271 C 16.685,4.182 15.941,2.969 14.923,1.928 12.729,-0.443 9.815,-1.629 6.182,-1.629 3.944,-1.629 1.883,-1.086 0,0" /></g></g></g><text
         id="text653"
         style="font-variant:normal;font-weight:normal;font-stretch:normal;font-size:12.5063px;font-family:'Google Sans';-inkscape-font-specification:GoogleSans-Regular;writing-mode:lr-tb;fill:#000000;fill-opacity:1;fill-rule:nonzero;stroke:none;stroke-width:1.67318"
         transform="scale(1,-1)"
         x="400.11514"
         y="-93.098007"><tspan
           id="tspan651"
           sodipodi:role="line"
           x="400.11514"
           y="-93.098007"
           style="stroke-width:1.67318">Portugal</tspan></text></g></g></g></svg>
